<svg xmlns="http://www.w3.org/2000/svg" viewBox="0 0 17.462499 26.193748" height="90" width="60"><g stroke-width=".089"><path d="M6.15 7.212c-.02.1-.063.185-.15.227-.11.053-.171-.043-.204-.183l.353-.044M6.928 7.112c-.012.169-.059.32-.178.341-.127.025-.18-.121-.198-.292l.376-.049M7.763 7.006c-.012.13-.045.263-.12.353-.1.121-.167-.08-.207-.311l.327-.042M8.571 6.903c-.066.18-.2.498-.319.553-.105.049-.08-.264-.045-.506l.364-.047M8.881 7.461c-.144.047-.221-.357-.252-.564.107-.014.215-.028.322-.04.026.277.03.572-.07.604" fill="#cceef7"/><path d="M9.196 14.08c-.013.15-.4.16-.453-.052-.05-.213.363 0 .363 0l-.197-1.618c.023 0 .048-.002.071-.005.05.332.226 1.548.216 1.676M10.063 14.033c-.013.15-.4.16-.45-.053-.054-.213.36 0 .36 0l-.197-1.633.068-.006c.047.306.231 1.56.219 1.692" fill="#5e6061"/><path d="M9.83 5.814c-.058.312-.407.084-.407 0 0-.215.465-.31.408 0zm1.092.637c-.057.312-.405.084-.405 0 0-.216.464-.312.405 0zm-2.101 4.494l1.335-2.035.862-1.316c.127-.193.264-.385.381-.58.075-.125.042-.258.04-.396-.006-.467-.012-.933-.016-1.4a5084.2 4198.433 0 0 0-4.87.229c-.418.019-.836.038-1.252.059.092.592.185 1.184.28 1.777l.215-.027.353-.044c.133-.018.268-.035.403-.051l.376-.049c.17-.02.338-.042.508-.064l.327-.042.444-.057.364-.046c.028-.074.044-.124.044-.124l.014.118a23.245 19.195 0 0 1 .322-.04c.035-.006.071-.01.107-.015l.903-.115-1.786 2.244-.813 1.022a327.748 270.647 0 0 1-.629.79c-.1.125-.285.283-.34.428-.025.065.004.162.01.231l.039.45.059.699 2.408-.18c.023-.002.048-.003.071-.006a.415.415 0 0 0 .039-.002c.252-.02.505-.037.757-.056l.068-.006c.262-.02.525-.04.787-.058.237-.018.496-.014.728-.055.031-.006.068.002.085-.015.048-.04.042-.231.051-.286l.214-1.226c-.963.08-1.925.162-2.888.244" fill="#18abe3"/><path d="M8.629 6.897a.647.534 0 0 0-.058.006c.028-.074.044-.124.044-.124l.014.118M9.83 5.814c-.058.312-.407.084-.407 0 0-.215.465-.31.408 0M10.922 6.45c-.057.313-.405.085-.405 0 0-.215.464-.311.405 0" fill="#18abe3"/><path d="M9.83 5.814c-.058.312-.407.084-.407 0 0-.215.465-.31.408 0M10.922 6.45c-.057.313-.405.085-.405 0 0-.215.464-.311.405 0" fill="#fff"/><path d="M9.698 5.794a.069.057 0 1 1-.137 0 .069.057 0 0 1 .137 0M10.79 6.43a.069.057 0 1 1-.136 0 .069.057 0 0 1 .137 0" fill="#100f0d"/></g><path class="st0" d="M17.462 9.325C17.462 4.191 13.546 0 8.732 0 3.915 0 0 4.191 0 9.325c0 .995.159 1.99.423 2.881 0 0 .741 3.51 8.255 13.988 4.286-6.025 6.403-9.744 7.356-11.787a9.801 9.801 0 0 0 1.428-5.082zm-8.837 5.972c-3.069 0-5.556-2.62-5.556-5.92 0-3.248 2.487-5.92 5.556-5.92 3.07 0 5.504 2.62 5.504 5.92.052 3.3-2.435 5.92-5.504 5.92zm0 0" fill="red"/></svg>