<svg xmlns="http://www.w3.org/2000/svg" width="60" height="90" viewBox="0 0 17.462499 26.193748" id="svg1442"><g transform="scale(.75)" id="g941"><path d="M11.5 20.396c-4.092 0-7.408-3.492-7.408-7.893 0-4.33 3.316-7.893 7.409-7.893 4.092 0 7.337 3.493 7.337 7.893.07 4.4-3.245 7.893-7.337 7.893z" id="path916" fill="#fff" stroke-width=".702"/><g transform="translate(-90.207 -86.866)" id="layer1"><g transform="matrix(.40393 0 0 .3999 60.823 61.699)" id="g900"><g id="g2048" transform="matrix(.28554 0 0 .23816 68.53 66.695)" stroke-width=".089"><path d="M85.852 85.17c-.215 1.396-.716 2.596-1.718 3.187-1.272.734-1.988-.609-2.364-2.56 1.36-.215 2.722-.43 4.082-.627" id="path56" fill="#cceef7"/><path d="M94.858 83.774c-.143 2.363-.68 4.475-2.06 4.78-1.467.34-2.076-1.701-2.29-4.1 1.45-.233 2.9-.448 4.35-.68" id="path58" fill="#cceef7"/><path d="M104.508 82.288c-.143 1.826-.519 3.687-1.378 4.94-1.164 1.702-1.934-1.127-2.4-4.35 1.254-.196 2.507-.393 3.778-.59" id="path60" fill="#cceef7"/><path d="M113.855 80.855c-.77 2.525-2.31 6.965-3.689 7.735-1.218.68-.93-3.689-.519-7.09 1.396-.215 2.793-.43 4.207-.645" id="path62" fill="#cceef7"/><path d="M117.435 88.661c-1.665.663-2.56-4.995-2.918-7.895 1.235-.197 2.489-.394 3.724-.573.304 3.885.358 8.02-.806 8.468" id="path64" fill="#cceef7"/><path d="M121.07 181.334c-.144 2.095-4.62 2.237-5.228-.735-.591-2.99 4.19 0 4.19 0l-2.275-22.648c.27-.018.555-.036.824-.072.573 4.638 2.614 21.664 2.489 23.455" id="path66" fill="#5e6061"/><path d="M131.096 180.671c-.143 2.095-4.62 2.238-5.21-.752-.609-2.972 4.172 0 4.172 0l-2.274-22.863c.268-.018.519-.054.788-.072.537 4.28 2.668 21.843 2.524 23.687" id="path68" fill="#5e6061"/><path d="M128.41 65.6c-.68 4.37-4.708 1.183-4.708 0 0-3.007 5.371-4.35 4.709 0zm12.623 8.917c-.662 4.369-4.691 1.182-4.691 0 0-3.026 5.371-4.369 4.69 0zm-24.296 62.915c5.156-9.507 10.295-18.996 15.433-28.485 3.33-6.141 6.643-12.282 9.973-18.424 1.468-2.703 3.044-5.388 4.405-8.129.859-1.736.483-3.597.465-5.532-.072-6.535-.143-13.07-.197-19.605-18.764 1.057-37.527 2.131-56.29 3.206-4.835.268-9.67.536-14.485.823 1.074 8.29 2.148 16.58 3.24 24.887l2.489-.376c1.36-.215 2.722-.43 4.082-.627 1.54-.25 3.098-.484 4.655-.716 1.45-.233 2.9-.448 4.351-.68 1.952-.287 3.903-.591 5.873-.895 1.253-.197 2.506-.394 3.777-.591 1.701-.251 3.42-.52 5.139-.789 1.396-.214 2.793-.43 4.207-.644.323-1.039.502-1.737.502-1.737s.053.663.16 1.648a268.73 268.73 0 0 1 3.725-.573c.412-.072.824-.126 1.235-.197l10.439-1.612c-6.876 10.474-13.769 20.949-20.644 31.422-3.133 4.78-6.267 9.543-9.4 14.306a3788.989 3788.989 0 0 1-7.269 11.046c-1.146 1.756-3.294 3.975-3.939 5.999-.286.913.054 2.273.126 3.24.143 2.095.286 4.19.447 6.285.215 3.258.448 6.535.68 9.793l27.841-2.524c.27-.018.555-.036.824-.072.143 0 .305-.018.448-.035 2.918-.27 5.836-.52 8.755-.788.268-.018.519-.054.788-.072 3.025-.287 6.069-.555 9.095-.823 2.74-.252 5.73-.197 8.415-.77.358-.072.788.035.985-.198.555-.554.483-3.24.59-4.01.824-5.73 1.648-11.459 2.471-17.17-11.136 1.128-22.255 2.274-33.391 3.42" id="path70" fill="#18abe3"/><path d="M114.517 80.766a7.477 7.477 0 0 0-.662.089c.322-1.039.5-1.737.5-1.737s.054.663.162 1.648" id="path72" fill="#18abe3"/><path d="M128.41 65.6c-.68 4.37-4.708 1.183-4.708 0 0-3.007 5.371-4.35 4.709 0" id="path74" fill="#18abe3"/><path d="M141.033 74.517c-.662 4.369-4.691 1.182-4.691 0 0-3.026 5.371-4.369 4.69 0" id="path76" fill="#18abe3"/><path d="M128.41 65.6c-.68 4.37-4.708 1.183-4.708 0 0-3.007 5.371-4.35 4.709 0" id="path78" fill="#fff"/><path d="M141.033 74.517c-.662 4.369-4.691 1.182-4.691 0 0-3.026 5.371-4.369 4.69 0" id="path80" fill="#fff"/><path d="M126.882 65.324a.794.794 0 1 1-1.587 0 .794.794 0 0 1 1.587 0" id="path82" fill="#100f0d"/><path d="M139.513 74.233a.793.793 0 1 1-1.587.001.793.793 0 0 1 1.587 0" id="path84" fill="#100f0d"/></g><g id="g870" transform="matrix(1.74671 0 0 1.74671 72.744 62.936)" fill="red"><path id="path868" d="M33 17.8C33 8 25.6 0 16.5 0S0 8 0 17.8c0 1.9.3 3.8.8 5.5 0 0 1.4 6.7 15.6 26.7 8.1-11.5 12.1-18.6 13.9-22.5 1.7-2.8 2.7-6.2 2.7-9.7zM16.3 29.2c-5.8 0-10.5-5-10.5-11.3 0-6.2 4.7-11.3 10.5-11.3s10.4 5 10.4 11.3c.1 6.3-4.6 11.3-10.4 11.3zm0 0" class="st0"/></g></g></g></g><style id="style866">.st0{fill:#f08304}</style></svg>