<?xml version="1.0" standalone="no"?>
<!DOCTYPE svg PUBLIC "-//W3C//DTD SVG 20010904//EN"
 "http://www.w3.org/TR/2001/REC-SVG-20010904/DTD/svg10.dtd">
<svg version="1.0" xmlns="http://www.w3.org/2000/svg"
 width="356.000000pt" height="356.000000pt" viewBox="0 0 356.000000 356.000000"
 preserveAspectRatio="xMidYMid meet">
<metadata>
Created by potrace 1.11, written by Peter Selinger 2001-2013
</metadata>
<g transform="translate(0.000000,356.000000) scale(0.100000,-0.100000)"
fill="#000000" stroke="none">
<path d="M2897 3553 c-1 0 -78 -4 -172 -8 -93 -3 -208 -8 -255 -10 -47 -2
-150 -6 -230 -10 -80 -3 -185 -8 -235 -10 -49 -2 -151 -7 -225 -10 -131 -5
-239 -10 -480 -20 -164 -8 -292 -13 -475 -21 -88 -3 -194 -8 -235 -9 -41 -2
-106 -5 -143 -6 l-68 -2 6 -31 c2 -17 7 -42 9 -56 3 -14 17 -90 31 -170 14
-80 27 -154 29 -165 2 -11 7 -42 10 -70 4 -27 11 -68 16 -90 10 -39 17 -86 19
-113 1 -9 14 -10 50 -6 47 6 49 5 59 -24 23 -66 89 -61 127 10 18 33 24 37 75
43 30 4 70 9 88 11 22 4 32 1 33 -8 4 -66 39 -112 79 -103 36 8 69 50 76 95
l6 39 72 8 c39 4 89 8 110 8 38 0 41 -2 52 -41 19 -66 33 -86 57 -82 26 4 67
77 67 120 0 20 5 28 18 29 9 0 26 2 37 4 11 3 48 7 83 10 l63 6 -6 -48 c-11
-93 -12 -109 -4 -131 12 -32 33 -27 67 14 30 36 92 152 92 171 0 14 37 23 37
9 3 -61 38 -167 64 -195 49 -52 80 -3 78 122 -1 48 1 90 4 94 4 3 21 7 39 8
53 4 152 16 168 20 8 2 44 7 80 10 36 3 83 8 104 11 37 5 39 4 25 -13 -8 -10
-16 -20 -19 -23 -5 -5 -59 -66 -215 -245 -33 -38 -65 -73 -70 -79 -6 -6 -53
-60 -105 -121 -52 -60 -99 -115 -105 -121 -14 -15 -124 -139 -176 -200 -79
-91 -164 -187 -174 -198 -6 -6 -58 -65 -115 -131 -58 -66 -117 -133 -131 -150
-213 -242 -284 -323 -351 -392 -43 -46 -79 -91 -79 -100 -3 -35 -2 -59 5 -113
3 -30 9 -86 12 -125 2 -38 7 -85 9 -104 3 -19 7 -71 11 -115 7 -93 8 -96 32
-92 9 2 67 7 127 11 61 4 126 8 145 10 19 2 85 6 145 10 170 10 235 14 295 20
30 2 104 7 165 11 60 3 118 8 127 9 10 2 20 1 22 -3 2 -4 11 -59 20 -122 15
-113 18 -133 31 -235 3 -27 13 -99 21 -159 8 -60 13 -111 11 -113 -2 -2 -23 4
-47 12 -48 17 -96 20 -104 6 -11 -17 13 -60 41 -74 42 -20 100 -21 129 -2 25
16 25 19 20 94 -4 43 -9 89 -12 102 -2 13 -7 42 -10 64 -4 36 -8 62 -19 130
-2 11 -9 56 -15 100 -7 44 -14 87 -15 97 -2 9 -7 37 -10 62 l-7 46 48 1 c27 0
56 2 64 3 8 2 66 7 128 10 l112 7 1 -28 c2 -38 5 -63 13 -115 4 -24 9 -61 12
-83 3 -22 7 -56 10 -75 3 -19 7 -57 10 -85 3 -27 7 -61 10 -75 11 -59 24 -174
20 -177 -2 -3 -25 3 -50 11 -76 26 -114 17 -101 -23 16 -52 124 -80 174 -45
22 16 23 21 16 92 -4 41 -8 84 -11 96 -2 11 -6 38 -9 61 -4 22 -18 114 -31
205 -14 91 -28 184 -31 206 l-5 42 33 -1 c19 0 75 3 124 7 118 9 207 14 332
21 153 8 196 14 209 28 7 6 15 37 18 67 6 55 82 469 93 504 5 17 -1 18 -108
11 -63 -4 -130 -8 -149 -10 -19 -2 -75 -6 -125 -10 -49 -4 -106 -8 -125 -10
-19 -2 -75 -6 -125 -10 -49 -3 -110 -8 -135 -10 -25 -2 -85 -6 -135 -10 -49
-3 -106 -8 -125 -10 -19 -2 -80 -7 -134 -10 -82 -5 -98 -4 -89 7 6 7 79 108
162 223 84 116 159 219 167 230 8 11 37 52 65 90 28 39 59 81 69 95 10 14 130
180 267 370 137 190 279 386 315 435 98 135 92 111 89 355 -2 118 -4 269 -4
335 l-2 120 -78 0 c-43 0 -79 -1 -80 -2z"/>
</g>
</svg>
