<svg version="1" xmlns="http://www.w3.org/2000/svg" width="474.667" height="474.667" viewBox="0 0 356.000000 356.000000"><path d="M289.7.7c-.1 0-7.8.4-17.2.8-9.3.3-20.8.8-25.5 1-4.7.2-15 .6-23 1-8 .3-18.5.8-23.5 1-4.9.2-15.1.7-22.5 1-13.1.5-23.9 1-48 2-16.4.8-29.2 1.3-47.5 2.1-8.8.3-19.4.8-23.5.9-4.1.2-10.6.5-14.3.6l-6.8.2.6 3.1c.2 1.7.7 4.2.9 5.6.3 1.4 1.7 9 3.1 17 1.4 8 2.7 15.4 2.9 16.5.2 1.1.7 4.2 1 7 .4 2.7 1.1 6.8 1.6 9 1 3.9 1.7 8.6 1.9 11.3.1.9 1.4 1 5 .6 4.7-.6 4.9-.5 5.9 2.4 2.3 6.6 8.9 6.1 12.7-1 1.8-3.3 2.4-3.7 7.5-4.3 3-.4 7-.9 8.8-1.1 2.2-.4 3.2-.1 3.3.8.4 6.6 3.9 11.2 7.9 10.3 3.6-.8 6.9-5 7.6-9.5l.6-3.9 7.2-.8c3.9-.4 8.9-.8 11-.8 3.8 0 4.1.2 5.2 4.1 1.9 6.6 3.3 8.6 5.7 8.2 2.6-.4 6.7-7.7 6.7-12 0-2 .5-2.8 1.8-2.9.9 0 2.6-.2 3.7-.4 1.1-.3 4.8-.7 8.3-1l6.3-.6-.6 4.8c-1.1 9.3-1.2 10.9-.4 13.1 1.2 3.2 3.3 2.7 6.7-1.4 3-3.6 9.2-15.2 9.2-17.1 0-1.4 3.7-2.3 3.7-.9.3 6.1 3.8 16.7 6.4 19.5 4.9 5.2 8 .3 7.8-12.2-.1-4.8.1-9 .4-9.4.4-.3 2.1-.7 3.9-.8 5.3-.4 15.2-1.6 16.8-2 .8-.2 4.4-.7 8-1 3.6-.3 8.3-.8 10.4-1.1 3.7-.5 3.9-.4 2.5 1.3-.8 1-1.6 2-1.9 2.3-.5.5-5.9 6.6-21.5 24.5-3.3 3.8-6.5 7.3-7 7.9-.6.6-5.3 6-10.5 12.1-5.2 6-9.9 11.5-10.5 12.1-1.4 1.5-12.4 13.9-17.6 20-7.9 9.1-16.4 18.7-17.4 19.8-.6.6-5.8 6.5-11.5 13.1-5.8 6.6-11.7 13.3-13.1 15-21.3 24.2-28.4 32.3-35.1 39.2-4.3 4.6-7.9 9.1-7.9 10-.3 3.5-.2 5.9.5 11.3.3 3 .9 8.6 1.2 12.5.2 3.8.7 8.5.9 10.4.3 1.9.7 7.1 1.1 11.5.7 9.3.8 9.6 3.2 9.2.9-.2 6.7-.7 12.7-1.1 6.1-.4 12.6-.8 14.5-1 1.9-.2 8.5-.6 14.5-1 17-1 23.5-1.4 29.5-2 3-.2 10.4-.7 16.5-1.1 6-.3 11.8-.8 12.7-.9 1-.2 2-.1 2.2.3.2.4 1.1 5.9 2 12.2 1.5 11.3 1.8 13.3 3.1 23.5.3 2.7 1.3 9.9 2.1 15.9s1.3 11.1 1.1 11.3c-.2.2-2.3-.4-4.7-1.2-4.8-1.7-9.6-2-10.4-.6-1.1 1.7 1.3 6 4.1 7.4 4.2 2 10 2.1 12.9.2 2.5-1.6 2.5-1.9 2-9.4-.4-4.3-.9-8.9-1.2-10.2-.2-1.3-.7-4.2-1-6.4-.4-3.6-.8-6.2-1.9-13-.2-1.1-.9-5.6-1.5-10-.7-4.4-1.4-8.7-1.5-9.7-.2-.9-.7-3.7-1-6.2l-.7-4.6 4.8-.1c2.7 0 5.6-.2 6.4-.3.8-.2 6.6-.7 12.8-1l11.2-.7.1 2.8c.2 3.8.5 6.3 1.3 11.5.4 2.4.9 6.1 1.2 8.3.3 2.2.7 5.6 1 7.5.3 1.9.7 5.7 1 8.5.3 2.7.7 6.1 1 7.5 1.1 5.9 2.4 17.4 2 17.7-.2.3-2.5-.3-5-1.1-7.6-2.6-11.4-1.7-10.1 2.3 1.6 5.2 12.4 8 17.4 4.5 2.2-1.6 2.3-2.1 1.6-9.2-.4-4.1-.8-8.4-1.1-9.6-.2-1.1-.6-3.8-.9-6.1-.4-2.2-1.8-11.4-3.1-20.5-1.4-9.1-2.8-18.4-3.1-20.6l-.5-4.2 3.3.1c1.9 0 7.5-.3 12.4-.7 11.8-.9 20.7-1.4 33.2-2.1 15.3-.8 19.6-1.4 20.9-2.8.7-.6 1.5-3.7 1.8-6.7.6-5.5 8.2-46.9 9.3-50.4.5-1.7-.1-1.8-10.8-1.1-6.3.4-13 .8-14.9 1-1.9.2-7.5.6-12.5 1-4.9.4-10.6.8-12.5 1-1.9.2-7.5.6-12.5 1-4.9.3-11 .8-13.5 1-2.5.2-8.5.6-13.5 1-4.9.3-10.6.8-12.5 1-1.9.2-8 .7-13.4 1-8.2.5-9.8.4-8.9-.7.6-.7 7.9-10.8 16.2-22.3 8.4-11.6 15.9-21.9 16.7-23 .8-1.1 3.7-5.2 6.5-9 2.8-3.9 5.9-8.1 6.9-9.5 1-1.4 13-18 26.7-37s27.9-38.6 31.5-43.5c9.8-13.5 9.2-11.1 8.9-35.5-.2-11.8-.4-26.9-.4-33.5l-.2-12h-7.8c-4.3 0-7.9.1-8 .2z"/></svg>