<svg xmlns="http://www.w3.org/2000/svg" width="210mm" height="297mm" viewBox="0 0 210 297"><path d="M73.558 80.3c-.215 1.046-.716 1.945-1.719 2.387-1.271.55-1.987-.456-2.364-1.917 1.361-.161 2.722-.322 4.083-.47m9.006-1.046c-.144 1.77-.68 3.352-2.06 3.58-1.468.255-2.076-1.274-2.291-3.07 1.45-.175 2.9-.335 4.35-.51m9.651-1.113c-.143 1.368-.52 2.762-1.379 3.701-1.163 1.275-1.933-.845-2.399-3.258a2300.8 2300.8 0 0 1 3.778-.443m9.346-1.073c-.77 1.891-2.31 5.217-3.688 5.793-1.218.51-.931-2.762-.52-5.31 1.397-.16 2.794-.322 4.208-.483m3.58 5.847c-1.664.496-2.56-3.741-2.918-5.913a353.39 353.39 0 0 1 3.725-.43c.304 2.91.358 6.008-.806 6.343" fill="#cceef7"/><path d="M108.776 152.32c-.144 1.57-4.62 1.676-5.229-.55-.59-2.239 4.19 0 4.19 0l-2.274-16.962c.269-.013.555-.027.824-.053.573 3.473 2.614 16.224 2.489 17.566m10.026-.496c-.143 1.568-4.62 1.675-5.21-.564-.609-2.226 4.171 0 4.171 0l-2.274-17.123c.269-.014.52-.04.788-.054.537 3.205 2.668 16.36 2.525 17.74" fill="#5e6061"/><path d="M116.116 65.644c-.68 3.272-4.709.885-4.709 0 0-2.252 5.372-3.259 4.71 0zm12.622 6.678c-.662 3.272-4.69.885-4.69 0 0-2.266 5.37-3.272 4.69 0zm-24.295 47.12c5.156-7.12 10.294-14.228 15.433-21.335 3.33-4.599 6.643-9.198 9.972-13.797 1.469-2.025 3.044-4.036 4.405-6.089.86-1.3.483-2.694.466-4.143-.072-4.894-.144-9.788-.197-14.683-18.764.792-37.528 1.596-56.291 2.4-4.834.202-9.669.403-14.485.618a7904.518 7904.518 0 0 0 3.24 18.639c.825-.095 1.666-.189 2.49-.282a431.95 431.95 0 0 1 4.082-.47c1.54-.187 3.097-.362 4.655-.536 1.45-.175 2.9-.335 4.35-.51 1.952-.214 3.904-.442 5.873-.67a2300.8 2300.8 0 0 1 3.778-.443c1.7-.187 3.42-.388 5.139-.59 1.396-.16 2.793-.322 4.207-.483.322-.777.501-1.3.501-1.3s.054.496.161 1.234a353.36 353.36 0 0 1 3.725-.43c.411-.053.823-.094 1.235-.147l10.438-1.207c-6.875 7.844-13.768 15.689-20.643 23.533-3.134 3.58-6.267 7.147-9.4 10.714a2922.312 2922.312 0 0 1-7.27 8.273c-1.145 1.315-3.294 2.977-3.938 4.493-.287.683.053 1.702.125 2.427.143 1.568.287 3.137.448 4.706.214 2.44.447 4.895.68 7.335l27.841-1.89c.269-.014.555-.028.824-.054.143 0 .304-.014.447-.027 2.919-.202 5.837-.39 8.755-.59.269-.014.52-.04.788-.054 3.026-.215 6.07-.415 9.096-.616 2.739-.189 5.73-.148 8.415-.577.357-.054.787.026.984-.148.555-.415.484-2.427.591-3.003.824-4.291 1.647-8.582 2.47-12.86-11.135.845-22.254 1.704-33.39 2.561" fill="#18abe3"/><path d="M102.222 77.002c-.232.013-.447.04-.662.066.322-.777.501-1.3.501-1.3s.054.496.161 1.234m13.894-11.358c-.68 3.272-4.709.885-4.709 0 0-2.252 5.372-3.259 4.71 0m12.621 6.678c-.662 3.272-4.69.885-4.69 0 0-2.266 5.37-3.272 4.69 0" fill="#18abe3"/><path d="M116.116 65.644c-.68 3.272-4.709.885-4.709 0 0-2.252 5.372-3.259 4.71 0m12.621 6.678c-.662 3.272-4.69.885-4.69 0 0-2.266 5.37-3.272 4.69 0" fill="#fff"/><path d="M114.588 65.436c0 .328-.356.595-.794.595-.438 0-.793-.267-.793-.595 0-.328.355-.594.793-.594.438 0 .794.266.794.594m12.63 6.674c0 .328-.355.594-.793.594-.438 0-.793-.266-.793-.595 0-.327.355-.594.793-.594.438 0 .793.267.793.594" fill="#100f0d"/></svg>