<svg xmlns="http://www.w3.org/2000/svg" width="556.008" height="148.486" viewBox="-0.1 0 147.11039 39.286806"><path d="M88.256 17.528c-.239.596-.65-.133-1.02-1.06.388-.04.772-.084 1.161-.124.027.429-.009.848-.141 1.184M91.131 16.061c-.106.632-.26 1.215-.485 1.41-.257.225-.438-.473-.557-1.304l1.042-.106M93.018 16.98c-.296.195-.654-.349-.968-1.016.354-.04.702-.075 1.056-.11.097.57.097 1.003-.088 1.126" fill="#cceef7"/><path d="M91.723 35.134l1.657 1.52s-.813 1.069-1.4.698c-.588-.367.993-.808.993-.808l-1.691-1.25 1.9-2.054.313-.014-1.772 1.908M97.501 37.352c-.588.371-1.4-.698-1.4-.698l1.656-1.52-1.886-2.031a6.2 6.2 0 0 0 .283-.018l2.045 2.208-1.692 1.25s1.581.442.994.809" fill="#5e6061"/><path d="M93.406 13.12c-.243 1.568-1.691.42-1.696 0 0-1.091 1.935-1.573 1.696 0zm-3.64.11c-.242 1.572-1.691.424-1.691 0 0-1.087 1.93-1.568 1.692 0zm13.367 18.901v-4.784c-2.765.186-5.535.367-8.3.552 1.497-1.925 2.99-3.856 4.488-5.782l3.154-4.068c.291-.371.287-.437.287-.919v-6.81c-4.576.264-9.157.533-13.733.798l-3.604.212c.066 1.767.128 3.539.19 5.306.538-.058 1.082-.11 1.62-.168.39-.04.773-.084 1.162-.124.566-.057 1.127-.115 1.692-.177l1.042-.106c.305-.035.614-.066.92-.097.353-.04.701-.075 1.055-.11.605-.067 1.206-.128 1.81-.19.818-.089 1.635-.173 2.452-.256-1.647 2.045-3.295 4.09-4.947 6.135-.936 1.166-1.877 2.332-2.818 3.498-.539.672-1.082 1.343-1.621 2.015-.265.327-.468.437-.402.839.23 1.396.539 2.787.813 4.179.07.375.088.843.23 1.197.097.242-.023.14.172.203.194.057.534-.031.738-.04.432-.022.87-.044 1.307-.07.777-.04 1.56-.08 2.341-.124l.314-.014c.79-.04 1.58-.084 2.376-.123a6.2 6.2 0 0 0 .283-.018c1.077-.053 2.16-.11 3.242-.168.985-.053 1.97-.106 2.955-.154.141-.01.627.048.742-.04.102-.08.04-.437.04-.592" fill="#fbc108"/><path d="M89.767 13.23c-.243 1.572-1.692.424-1.692 0 0-1.087 1.93-1.568 1.692 0M93.406 13.12c-.243 1.568-1.691.42-1.696 0 0-1.091 1.935-1.573 1.696 0" fill="#fbc108"/><path d="M89.767 13.23c-.243 1.572-1.692.424-1.692 0 0-1.087 1.93-1.568 1.692 0M93.406 13.12c-.243 1.568-1.691.42-1.696 0 0-1.091 1.935-1.573 1.696 0" fill="#fff"/><path d="M89.016 13.606c-.197.035-.395-.15-.442-.412-.047-.263.074-.504.27-.54.197-.035.394.15.442.412.047.263-.074.504-.27.54M92.654 13.493c-.196.035-.394-.15-.441-.412-.048-.263.073-.505.27-.54.196-.035.394.149.442.412.047.262-.074.504-.27.54" fill="#100f0d"/><path d="M44.754 32.834l-.757 5.89s1.514-.736 1.324 0c-.189.736-1.608.7-1.655.184-.047-.516.836-6.074.836-6.074h.252M41.983 32.834l-.757 5.89s1.513-.736 1.324 0c-.189.736-1.608.7-1.655.184-.047-.516.836-6.074.836-6.074h.252" fill="#5e6061"/><path d="M43.663 30.253v-5.769s5.373-1.926 5.373 2.318c0 4.245-5.373 3.45-5.373 3.45zm.157-14.038l.004.004c.057-.026.123 0 .154.06.004.013.57 1.222 1.524 1.385.53.088 1.082-.145 1.656-.71a.438.438 0 0 1 .048-.044c.018-.014.038-.022.055-.031.014-.01.022-.01.036-.01.092-.017.193.071.268.401.14.616-.224.244-.416.013-.04.038-.079.073-.118.104.074.057.131.202.145.481.044.851-.458.084-.614-.17-.044.023-.083.045-.127.063.04.09.03.24-.058.49-.275.76-.437 0-.49-.334-.053.004-.106.009-.158.009-.058 0-.117-.004-.174-.01.013.093-.044.234-.211.443-.592.732-.359-.456-.328-.607a1.634 1.634 0 0 1-.312-.198c-.057.092-.174.207-.376.34-1.016.654-.137-.83-.137-.83h.01a2.938 2.938 0 0 1-.214-.293c-.08.046-.211.081-.425.086-.992.03.258-.643.258-.643zm7.796 10.332c-.202-3.03-2.054-5.344-4.904-6.378 2.549-1.541 4.229-4.488 3.587-7.482-.645-3.017-3.084-4.94-5.927-5.786-1.406-.415-2.912-.65-4.377-.616l-.013 14.234c0 3.37-.004 6.74-.009 10.105v1.705c0 .354-.086.363.198.464.354.127.875.101 1.245.132.099.009.2.013.297.02.083.009.167.013.25.013h.005c.567.03 1.135.04 1.702.022.268-.01.543-.022.812-.046h.004c.086-.004.172-.01.257-.018h.005c1.082-.092 2.15-.29 3.167-.67 2.5-.938 3.886-3.014 3.7-5.699" fill="#98198e"/><path d="M47.15 17.285c-.04.035-.08.07-.12.102.076.057.133.203.147.481.044.852-.46.084-.614-.168-.045.022-.084.044-.128.062.04.088.03.239-.058.49-.274.76-.437 0-.49-.335-.053.004-.106.009-.16.009-.057 0-.114-.004-.172-.01.014.093-.044.235-.212.442-.592.734-.357-.455-.326-.605a1.633 1.633 0 0 1-.314-.199c-.058.093-.172.208-.376.34-1.015.654-.136-.83-.136-.83h.008a3.11 3.11 0 0 1-.212-.291c-.08.044-.212.08-.424.084-.993.03.257-.641.257-.641l.004.004c.057-.027.124 0 .155.057.004.014.57 1.224 1.523 1.387.53.089 1.083-.145 1.657-.71a.308.308 0 0 1 .102-.075c.013-.01.022-.01.035-.01.093-.017.194.07.27.402.14.614-.226.243-.416.013M46.346 13.148c0-1.408 2.503-2.033 2.19 0-.313 2.034-2.19.548-2.19 0M42.112 11.723c0-1.407 2.503-2.033 2.19 0-.313 2.034-2.19.548-2.19 0" fill="#fff"/><path d="M48.347 13.396c0 .209-.31.379-.695.379-.384 0-.695-.17-.695-.38 0-.209.311-.378.695-.378.384 0 .695.17.695.379M44.125 11.97c0 .21-.312.38-.696.38-.384 0-.695-.17-.695-.38 0-.208.311-.378.695-.378.384 0 .696.17.696.379" fill="#100f0d"/><path d="M47.26 16.879c-.017.009-.035.017-.052.03v-.003a.063.063 0 0 1 .053-.027" fill="#fff"/><path d="M2.32 14.255c-.052.344-.176.64-.423.786-.314.181-.49-.15-.584-.632.336-.053.672-.106 1.008-.154M4.542 13.91c-.035.583-.167 1.104-.508 1.18-.362.083-.512-.42-.565-1.012.358-.057.716-.11 1.073-.168M6.923 13.544c-.035.45-.128.91-.34 1.219-.287.42-.477-.279-.592-1.074l.932-.145M9.229 13.19c-.19.623-.57 1.718-.91 1.908-.3.168-.23-.91-.128-1.749l1.038-.159M10.112 15.116c-.41.163-.631-1.232-.72-1.948.305-.048.614-.097.92-.141.074.958.088 1.979-.2 2.09" fill="#cceef7"/><path d="M11.01 37.98c-.036.516-1.14.551-1.29-.182-.146-.738 1.033 0 1.033 0l-.561-5.588a3.03 3.03 0 0 0 .203-.017c.141 1.144.645 5.344.614 5.786M13.483 37.816c-.036.517-1.14.552-1.286-.186-.15-.733 1.03 0 1.03 0l-.561-5.64c.066-.004.128-.014.194-.018.132 1.056.658 5.389.623 5.844" fill="#5e6061"/><path d="M12.82 9.427c-.168 1.078-1.162.291-1.162 0 0-.742 1.326-1.074 1.162 0zm3.114 2.2c-.163 1.077-1.157.291-1.157 0 0-.747 1.325-1.078 1.157 0zM9.94 27.148c1.272-2.345 2.54-4.686 3.808-7.027.821-1.515 1.638-3.03 2.46-4.546.362-.667.75-1.329 1.087-2.005.212-.428.119-.888.115-1.365a1743.93 1743.93 0 0 1-.05-4.837c-4.628.261-9.257.526-13.887.791-1.192.066-2.385.133-3.573.203.265 2.045.53 4.09.8 6.14l.613-.093c.336-.053.672-.106 1.008-.154.38-.062.764-.12 1.148-.177.358-.057.716-.11 1.073-.168.482-.07.963-.146 1.45-.22a434.094 434.094 0 0 1 3.237-.5c.08-.256.124-.428.124-.428s.013.163.04.406c.304-.048.613-.097.918-.141.102-.018.203-.031.305-.049l2.575-.397c-1.696 2.584-3.397 5.168-5.093 7.752-.773 1.18-1.546 2.354-2.319 3.529-.596.91-1.192 1.816-1.793 2.725-.283.433-.813.981-.972 1.48-.07.225.013.561.031.8.035.516.07 1.033.11 1.55.053.804.11 1.612.168 2.416l6.869-.623a3.03 3.03 0 0 0 .203-.017.821.821 0 0 0 .11-.01c.72-.066 1.44-.127 2.16-.194.067-.004.129-.013.195-.017.746-.071 1.497-.137 2.244-.203.676-.062 1.413-.05 2.076-.19.088-.018.194.009.243-.05.137-.136.119-.798.146-.989l.609-4.235c-2.747.278-5.49.56-8.238.843" fill="#18abe3"/><path d="M9.392 13.168c-.057.004-.11.013-.163.022.08-.256.124-.428.124-.428s.013.163.04.406M12.82 9.427c-.168 1.078-1.162.291-1.162 0 0-.742 1.326-1.074 1.162 0M15.934 11.627c-.163 1.077-1.157.291-1.157 0 0-.747 1.325-1.078 1.157 0" fill="#18abe3"/><path d="M12.82 9.427c-.168 1.078-1.162.291-1.162 0 0-.742 1.326-1.074 1.162 0M15.934 11.627c-.163 1.077-1.157.291-1.157 0 0-.747 1.325-1.078 1.157 0" fill="#fff"/><path d="M12.443 9.358a.196.196 0 1 1-.392 0 .196.196 0 0 1 .392 0M15.56 11.557a.196.196 0 1 1-.392 0 .196.196 0 0 1 .391 0" fill="#100f0d"/><path d="M30.277 32.992c-.345.623-.999 1.573-1.723 1.533-.764-.04.168-1.272.764-1.97.393-.004.685.053.959.437M36.84 34.03c-.41.146-.945-.115-1.418-.446a2.458 2.458 0 0 0-.702-1.025c.314 0 .667.031 1.025.045.755.499 1.674 1.219 1.096 1.426" fill="#cceef7"/><path d="M38.806 3.623c-.42.622-.729-.729-.729-.729l-2.62 3.198c-.096 0-.198.004-.295.004 1.051-1.334 2.61-3.295 2.862-3.516.389-.34 1.197.415.782 1.042M20.868 6.34c-.066 0-.132.003-.199.003l-1.992-5.278s-.662 1.144-.861.42c-.199-.72.738-1.136.994-.69.23.402 1.727 4.616 2.058 5.544" fill="#5e6061"/><path d="M24.755 29.997c-.199 1.3-1.4.35-1.4 0 0-.9 1.603-1.303 1.4 0M35.983 29.997c-.198 1.3-1.4.35-1.4 0 0-.9 1.6-1.303 1.4 0" fill="#323292"/><path d="M24.755 29.997c-.199 1.3-1.4.35-1.4 0 0-.9 1.603-1.303 1.4 0" fill="#fff"/><path d="M35.983 29.997c-.198 1.3-1.4.35-1.4 0 0-.9 1.6-1.303 1.4 0zm-11.228 0c-.199 1.3-1.4.35-1.4 0 0-.9 1.603-1.303 1.4 0zm12.249 1.034v-4.064c0-.583.03-.525-.534-.53l-2.571-.013a739.656 739.656 0 0 0-3.185-.022c-1.634-.013-3.269-.022-4.899-.035.013-.49.031-.986.044-1.48.005-.16-.07-.76.027-.875.066-.075.618-.004.72-.004 1.126-.013 2.248-.022 3.37-.03a552.79 552.79 0 0 0-.057-2.7c-.005-.353-.013-.702-.022-1.055-.005-.318-.014-.636-.018-.954-.004-.124.057-.54-.013-.64-.12-.16-.76-.063-.99-.063h-3.944c.03-1.338.062-2.672.093-4.01.017-.928.04-1.856.061-2.783.005-.164-.083-.786.023-.91.057-.066.353-.044.45-.049 3.15-.194 6.299-.393 9.448-.587.332-.022.279.035.323-.279.066-.516.035-1.064.053-1.585.022-.756.048-1.511.075-2.27l-.296.003c-3.812.067-7.62.128-11.427.195-.954.017-1.913.03-2.867.048-.066 0-.132.004-.199.004h-.026l.477 13.6c.11 3.084.216 6.167.327 9.25.022.711.048 1.423.075 2.138.009.278-.093.914.04 1.166.11.217.37.12.67.115a23412.932 23412.932 0 0 1 6.524-.044c.213 0 .399-.013.562-.013.393-.004.685.053.959.437a1.4 1.4 0 0 1 .132.199c.65 1.17-.579 2.217-1.462 2.782 1.224.968 2.451 1.935 3.675 2.902.287.226.248.221.517-.048a11.448 11.448 0 0 0 1.458-1.74c.697-1.038 1.227-2.364.825-3.503a2.458 2.458 0 0 0-.702-1.025c.314 0 .667.03 1.025.044.362.013.72.018 1.034-.044.3-.053.19.053.225-.27.044-.41 0-.848 0-1.258" fill="#323292"/><path d="M35.983 29.997c-.198 1.3-1.4.35-1.4 0 0-.9 1.6-1.303 1.4 0" fill="#fff"/><path d="M24.499 30.24c0 .12-.194.219-.433.219-.24 0-.434-.098-.434-.22 0-.12.194-.218.434-.218.239 0 .433.098.433.219M35.725 30.24c0 .12-.194.219-.433.219-.24 0-.434-.098-.434-.22 0-.12.194-.218.434-.218.239 0 .433.098.433.219" fill="#100f0d"/><path d="M77.443 1.255c-.203 1.303-1.41.35-1.41 0 0-.905 1.609-1.307 1.41 0M84.47 1.595c-.19 1.241-1.334.336-1.334 0 0-.857 1.524-1.237 1.334 0" fill="#eb1f38"/><path d="M80.645 37.621c-.097.367-.804.35-.83.093-.014-.137.11-1.011.23-1.789.057-.04.114-.08.172-.123l-.235 1.82s.756-.367.663 0M75.318 37.82c-.093.371-.804.354-.826.093-.009-.088.035-.477.106-.945.053.009.106.013.163.022l-.106.83s.756-.366.663 0M74.033 37.82c-.093.371-.804.354-.826.093-.01-.102.053-.6.132-1.162.053.014.11.027.164.036l-.133 1.033s.755-.366.663 0M79.258 37.621c-.093.367-.804.35-.826.093-.009-.097.044-.539.12-1.055.057-.018.119-.036.176-.058l-.132 1.02s.76-.366.662 0" fill="#5e6061"/><path d="M77.443 1.255c-.203 1.303-1.41.35-1.41 0 0-.905 1.609-1.307 1.41 0M84.47 1.595c-.19 1.241-1.334.336-1.334 0 0-.857 1.524-1.237 1.334 0" fill="#fff"/><path d="M85.698 8.861c-.114.217-1.068-.057-1.546-.207.067.017.133.03.203.057.01-.004.018-.009.031-.009l.274-.605c.49.23 1.136.579 1.038.764M86.988 7.037c-.132.252-1.378-.15-1.727-.27l.305-.666c.397.167 1.55.693 1.422.936M85.986 7.854c-.089.168-.685.04-1.171-.097l.274-.6c.464.23.985.53.897.697" fill="#cceef7"/><path d="M84.143 8.65a.443.443 0 0 1-.075-.018v-.01c.022.01.05.018.075.027" fill="#eb1f38"/><path d="M77.443 1.255c-.203 1.303-1.41.35-1.41 0 0-.905 1.609-1.307 1.41 0zm5.693.34c0-.857 1.524-1.237 1.334 0-.19 1.241-1.334.336-1.334 0zm2.434 4.497a9.225 9.225 0 0 0-2.394-.738c.27-1.113.64-2.266 1.096-2.844 1.033-1.312.335-2.483-1.105-1.71-1.44.773.31 1.979.31 1.979l-.584 2.535c-1.046-.128-2.115-.035-3.113.385a5.311 5.311 0 0 0-1.44.9c-.438-1.885-.831-4.019-.641-4.854.375-1.63-.755-2.39-1.727-1.077-.972 1.316 1.122 1.66 1.122 1.66l.985 4.51a6.782 6.782 0 0 0-1.453 2.09c-1.604 3.511-.738 7.465.402 10.976 1.024 3.159 2.526 6.533 2.053 9.939-.322 2.319-1.943 3.852-4.364 3.768-.115-.004-.45-.098-.552-.049-.066.031-.04.07-.101.141-.243.292-.358.853-.508 1.206-.239.575-.482 1.149-.725 1.723.168.044.336.084.508.12a12.55 12.55 0 0 0 1.259.216c.053.009.106.013.163.022 1.286.137 2.598.07 3.79-.331.058-.018.12-.036.177-.058.46-.172.901-.393 1.317-.676.057-.04.114-.08.172-.123.305-.226.596-.49.866-.791 1.691-1.904 2.186-4.815 1.947-7.275-.3-3.158-1.828-5.99-2.91-8.914-1.056-2.858-1.56-6.144.313-8.803.87-1.237 2.266-1.727 3.635-1.387v-.01c.022.01.05.018.075.027 0 .004.004.004.01.004.066.018.132.031.203.058.009-.004.017-.01.03-.01l.274-.604.155-.34.274-.601.172-.39.305-.666c-.004 0-.004-.004-.004-.004l.01-.004" fill="#eb1f38"/><path d="M85.57 6.092l-.004.009c-.004 0-.004-.004-.004-.004l.01-.004" fill="#eb1f38"/><path d="M84.32 1.517a.254.254 0 1 1-.509 0 .254.254 0 0 1 .509 0M77.283 1.169a.268.268 0 1 1-.536 0 .268.268 0 0 1 .536 0" fill="#100f0d"/><path d="M61.09 33.084v5.043s-1.14-.22-1.067.258c.074.478 1.435 0 1.435 0v-5.3h-.367M63.437 33.084s.966 3.129 1.224 3.203c.258.073 2.319-1.105 2.319-1.105s.074.837.368.879c.295.042-.184-1.374-.184-1.374l-2.356 1.154-1.104-3.007-.267.25" fill="#5e6061"/><path d="M66.939 27.338a.952.952 0 0 1-.437.115h-.014c-.6.945-1.228 1.67-1.89 2.173.114.133.203.39.234.835.11 1.586-.848.173-1.144-.291-.429.194-.87.3-1.321.318h-.128c-2.301 0-3.975-2.257-4.05-2.355l.357-.26c.018.022 1.665 2.248 3.803 2.173 1.326-.053 2.571-.967 3.702-2.734-.27-.164-.407-.442-.415-.455a.145.145 0 0 1 .061-.199c.076-.035.164-.009.2.066.003 0 .167.318.45.411a.594.594 0 0 0 .46-.057.141.141 0 0 1 .194.062c.04.07.013.159-.062.198zM70.698 9.6c-.027-.543-.049-1.087-.093-1.625-.026-.323.013-.296-.323-.279l-2.941.186c-.402.026-.539-.088-.627.252-.142.547-.11 1.201-.164 1.762a144.186 144.186 0 0 1-.826 6.74c-.353 2.4-.75 4.815-1.409 7.152-.239.861-.508 1.74-.932 2.53-.212.407-.561 1.03-1.073 1.1-2.796.39-1.555-18.317-1.4-20.587h-4.1c-.048.225-.088.45-.132.675-.734 3.998-1.206 8.07-1.286 12.134-.075 3.618-.022 7.89 1.882 11.1.742 1.25 1.86 2.24 3.313 2.532.168.035.336.057.504.075.119.013.243.022.366.026a6.16 6.16 0 0 0 1.983-.27c.11-.03.217-.07.323-.105h.004c.481-.177.932-.411 1.351-.694 3.009-2.027 4.153-6.087 4.802-9.448.835-4.347.967-8.843.777-13.256" fill="#ea097f"/><path d="M58.368 8.809c0-.746 1.325-1.077 1.16 0-.166 1.076-1.16.29-1.16 0M68.583 9.428c0-.745 1.325-1.077 1.16 0-.166 1.077-1.16.29-1.16 0" fill="#fff"/><path d="M69.501 9.358c0 .137-.148.248-.331.248-.183 0-.332-.11-.332-.248 0-.136.149-.247.332-.247.183 0 .331.11.331.247M59.286 8.74c0 .136-.148.247-.33.247-.184 0-.332-.11-.332-.248 0-.137.148-.248.331-.248.183 0 .331.111.331.248" fill="#100f0d"/><path d="M66.939 27.338a.952.952 0 0 1-.437.115h-.014c-.6.945-1.228 1.67-1.89 2.173.114.133.203.39.234.835.11 1.586-.848.173-1.144-.291-.429.194-.87.3-1.321.318h-.128c-2.301 0-3.975-2.257-4.05-2.355l.357-.26c.018.022 1.665 2.248 3.803 2.173 1.326-.053 2.571-.967 3.702-2.734-.27-.164-.407-.442-.415-.455a.145.145 0 0 1 .061-.199c.076-.035.164-.009.2.066.003 0 .167.318.45.411a.594.594 0 0 0 .46-.057.141.141 0 0 1 .194.062c.04.07.013.159-.062.198" fill="#fff"/><path d="M125.616 33.416h.004l.066.071zm.398-1.002c-.204-.27-.407-.548-.61-.822h.004c-.336-.45-.667-.901-.998-1.352a5.879 5.879 0 0 0-.15-.198v-.004c-.257-.35-.517-.698-.774-1.043-.33-.45-.662-.901-.998-1.351-.225-.31-.455-.614-.68-.924-.146-.198-.296-.397-.442-.596l-.676-.914c-.282-.38-.56-.76-.839-1.136a709.76 709.76 0 0 0-1.634-2.208l-.676-.915c-.102-.14-.371-.384-.406-.552-.058-.238.185-.37.388-.583.588-.618 1.18-1.237 1.772-1.855 1.873-1.966 3.75-3.931 5.623-5.897l.835-.874c.128-.133.406-.332.477-.5.088-.203.083-.009-.014-.234-.141-.331-.565-.68-.795-.958-.804-.963-1.608-1.93-2.412-2.898l-1.82 1.913-6.983 7.328c.027-1.374.049-2.747.07-4.126.014-.839.027-1.678.045-2.517l.04-2.364c0-.176.15-1.153.022-1.28-.062-.058-.433-.018-.517-.018-.358-.014-.711-.022-1.069-.036-.57-.017-1.14-.04-1.71-.057l-3.29-.106a3297.19 3297.19 0 0 0-.38 6.564c-.225 3.83-.446 7.655-.667 11.484l-.822 14.091h4.444c.225 0 .91.12 1.091 0 .102-.066.018-.026.075-.172.084-.217.044-.561.062-.795l.093-1.175.37-4.722c.186-2.399.376-4.802.562-7.2.71.91 1.418 1.824 2.125 2.739 2.73 3.515 5.459 7.032 8.184 10.548.508-.575 1.012-1.153 1.52-1.728v-.004c.42-.477.844-.958 1.268-1.444.048-.053.092-.106.141-.159.247-.283.38-.389.389-.508-.027.022-.049.044-.075.066.026-.022.048-.044.075-.07.004-.097-.067-.208-.239-.438" fill="#fff200"/><path d="M112.048 19.653c.215.388.303.94.329 1.489l-1.09.139c.165-1.115.425-2.232.76-1.628M114.038 19.303c.255.172.509.86.707 1.538l-.96.122c-.045-.933-.024-1.848.253-1.66M116.084 19.365c.194.095.25.611.238 1.275l-.956.122c.164-.79.405-1.549.718-1.397M109.177 20.89c.072-1.065.287-2.782.925-2.532.51.2.48 1.391.353 2.407l-.864.038c-.242.01-.353.022-.414.086M116.585 15.378c0-1.969 3.5-2.844 3.062 0-.437 2.844-3.062.766-3.062 0" fill="#fff"/><path d="M118.116 15.67c-.41-.018-.734-.234-.723-.483.01-.248.351-.435.762-.417.41.017.733.233.723.482-.011.248-.352.435-.762.418" fill="#100f0d"/><path d="M109.208 14.905c-.001-1.97 3.5-2.844 3.062 0-.437 2.843-3.062.765-3.062 0" fill="#fff"/><path d="M110.762 15.234c-.407.004-.74-.195-.742-.444-.002-.249.327-.453.734-.457.407-.004.74.195.741.444.002.249-.326.453-.733.457" fill="#100f0d"/><path d="M131.142 32.32v4.754s-1.365.477-1.436 0c-.075-.482 1.065-.26 1.065-.26v-4.308c.04.045.075.089.115.133.084-.106.172-.212.256-.318M146.09 35.236l-1.97-2.434.211-.013c.049-.004.098-.004.146-.009l1.679 2.072s.56-.738.817-.327c.256.406-.884.71-.884.71" fill="#5e6061"/><path d="M133.845 20.788c-.009-.01-.017-.018-.017-.022a.16.16 0 0 1-.031-.076c.017.031.035.067.048.098M138.686 20.902c-.857.694-1.696.99-2.495.888-.862-.114-1.49-.68-1.79-1.015.619-.146 1.63-.332 2.275-.261a3.73 3.73 0 0 0-.172.115.22.22 0 0 0-.057.305c.07.101.207.128.31.057 1.002-.69 1.656-.327 1.93-.088M140.86 16.137v.004h-.92s-.573 3.047-.936 3.074c-.362.026-.243-3.074-.243-3.074h-3.569c-.022.14-.472 3.047-.795 3.074-.322.026-.662-2.929-.68-3.074h-.437s-.084.512-.102 1.24c-.044-.693.097-1.245.097-1.245h7.584M136.703 12.753c-.936 1.462-1.882-.322-1.692-.746.477-1.092 2.624-.72 1.692.746M139.919 12.39c-.265 1.719-1.851.465-1.851 0 0-1.187 2.116-1.718 1.85 0" fill="#a6d71c"/><path d="M136.703 12.753c-.936 1.462-1.882-.322-1.692-.746.477-1.092 2.624-.72 1.692.746M139.919 12.39c-.265 1.719-1.851.465-1.851 0 0-1.187 2.116-1.718 1.85 0" fill="#fff"/><path d="M139.724 12.25a.718.718 0 1 1-1.437 0 .718.718 0 0 1 1.437 0M136.63 12.281a.718.718 0 1 1-1.437 0 .718.718 0 0 1 1.437 0" fill="#100f0d"/><path d="M140.86 16.137v.004h-.92s-.573 3.047-.936 3.074c-.362.026-.243-3.074-.243-3.074h-3.569c-.022.14-.472 3.047-.795 3.074-.322.026-.662-2.929-.68-3.074h-.437s-.084.512-.102 1.24c-.044-.693.097-1.245.097-1.245h7.584" fill="#fff"/><path d="M135.192 16.14c-.022.142-.472 3.049-.795 3.075-.322.027-.662-2.928-.68-3.074h1.475M138.686 20.902c-.857.694-1.696.99-2.495.888-.862-.114-1.49-.68-1.79-1.015.619-.146 1.63-.332 2.275-.261a3.73 3.73 0 0 0-.172.115.22.22 0 0 0-.057.305c.07.101.207.128.31.057 1.002-.69 1.656-.327 1.93-.088M139.94 16.14s-.573 3.049-.936 3.075c-.362.027-.243-3.074-.243-3.074h1.18" fill="#fff"/><path d="M138.686 20.902c-.857.694-1.696.99-2.495.888-.862-.114-1.49-.68-1.79-1.015.619-.146 1.63-.332 2.275-.261a3.73 3.73 0 0 0-.172.115.22.22 0 0 0-.057.305c.07.101.207.128.31.057 1.002-.69 1.656-.327 1.93-.088" fill="#fabfc0"/><path d="M133.797 20.69a.155.155 0 0 0 .03.076c0 .004.01.013.018.022a.979.979 0 0 0-.048-.098" fill="#fff"/><path d="M140.86 16.14c0 .005 0 .054-.005.138 0 .022 0 .044-.004.07-.026.69-.207 2.929-1.333 4.457-.146.19-.31.385-.49.548-.19.181-.398.34-.633.468a2.96 2.96 0 0 1-.667.3c-.322.102-.68.164-1.073.164-.03.01-.057.01-.088.01-.243 0-.468-.023-.68-.063a3.02 3.02 0 0 1-.676-.198 2.586 2.586 0 0 1-.91-.632 3.164 3.164 0 0 1-.415-.552l-.04-.062c-.01-.01-.018-.018-.018-.022a.16.16 0 0 1-.03-.075c-.553-1.034-.646-2.355-.62-3.309-.043-.693.098-1.245.098-1.245h7.584zm-5.849-4.133c.477-1.092 2.624-.72 1.692.746-.936 1.462-1.882-.322-1.692-.746zm4.908.384c-.265 1.718-1.851.464-1.851 0 0-1.188 2.116-1.719 1.85 0zm6.996 19.899c-1.055-3.856-2.115-7.717-3.171-11.573l-2.756-10.058c-.2-.733-.371-1.484-.606-2.204-.026-.088-.035-.22-.097-.265-.212-.155-1.13 0-1.387 0h-4.108c-.234 0-.282-.03-.406.097-.146.146-.22.548-.296.738l-.53 1.334a3786.828 3786.828 0 0 1-3.035 7.646l-3.869 9.762c1.37 1.581 2.748 3.158 4.117 4.74.04.044.075.088.115.132.084-.106.172-.212.256-.318 1.934-2.403 3.86-4.802 5.795-7.205.618 1.017 1.241 2.032 1.86 3.048.37.605.737 1.21 1.108 1.816l1.047 1.718c.177.292.442 1.003.729 1.193.216.141.786.004 1.056-.014.46-.026.923-.048 1.382-.075l.212-.013c.049-.004.098-.004.146-.009.844-.049 1.687-.097 2.531-.141-.03-.12-.062-.234-.093-.35" fill="#a6d71c"/><path d="M136.19 21.79c-.86-.114-1.488-.68-1.788-1.016.618-.145 1.63-.33 2.274-.26a3.73 3.73 0 0 0-.172.115.22.22 0 0 0-.057.304c.07.102.207.128.31.058 1.002-.69 1.656-.327 1.93-.089-.858.694-1.697.99-2.496.888zm3.75-5.65s-.573 3.049-.936 3.075c-.362.027-.243-3.074-.243-3.074h-3.569c-.022.141-.472 3.048-.795 3.074-.322.027-.662-2.928-.68-3.074h-.437s-.084.512-.102 1.24c-.027.955.066 2.276.619 3.31.017.03.035.066.048.097.01.013.022.035.04.061.12.2.256.385.415.553.247.265.548.481.91.631.203.089.428.155.676.2.212.039.437.061.68.061.031 0 .057 0 .088-.009.393 0 .751-.062 1.074-.163a2.96 2.96 0 0 0 .667-.3c.234-.13.442-.288.631-.47.182-.162.345-.357.49-.547 1.127-1.528 1.308-3.768 1.335-4.457.004-.026.004-.048.004-.07.004-.084.004-.133.004-.137h-.919" fill="#fff"/><path d="M135.192 16.137v.004c-.022.14-.472 3.047-.795 3.074-.322.026-.662-2.929-.68-3.074v-.004h1.475M139.94 16.14s-.573 3.049-.936 3.075c-.362.027-.243-3.074-.243-3.074h1.18" fill="#cceef7"/></svg>