<?xml version="1.0" encoding="UTF-8" standalone="no"?>
<!-- Created with Inkscape (http://www.inkscape.org/) -->

<svg
   xmlns:dc="http://purl.org/dc/elements/1.1/"
   xmlns:cc="http://creativecommons.org/ns#"
   xmlns:rdf="http://www.w3.org/1999/02/22-rdf-syntax-ns#"
   xmlns:svg="http://www.w3.org/2000/svg"
   xmlns="http://www.w3.org/2000/svg"
   xmlns:sodipodi="http://sodipodi.sourceforge.net/DTD/sodipodi-0.dtd"
   xmlns:inkscape="http://www.inkscape.org/namespaces/inkscape"
   width="5.7917476in"
   height="1.5467246in"
   viewBox="-0.1 0 147.11039 39.286806"
   version="1.1"
   id="svg1015"
   inkscape:version="0.92.3 (2405546, 2018-03-11)"
   sodipodi:docname="LOGO.svg">
  <defs
     id="defs1009" />
  <sodipodi:namedview
     id="base"
     pagecolor="#ffffff"
     bordercolor="#666666"
     borderopacity="1.0"
     inkscape:pageopacity="0.0"
     inkscape:pageshadow="2"
     inkscape:zoom="0.90509668"
     inkscape:cx="249.16092"
     inkscape:cy="138.99858"
     inkscape:document-units="mm"
     inkscape:current-layer="layer1"
     showgrid="false"
     inkscape:window-width="1366"
     inkscape:window-height="704"
     inkscape:window-x="0"
     inkscape:window-y="27"
     inkscape:window-maximized="1"
     showguides="false"
     fit-margin-left="-2.7755576e-17"
     fit-margin-right="0"
     fit-margin-top="0"
     fit-margin-bottom="0"
     units="in" />
  <metadata
     id="metadata1012">
    <rdf:RDF>
      <cc:Work
         rdf:about="">
        <dc:format>image/svg+xml</dc:format>
        <dc:type
           rdf:resource="http://purl.org/dc/dcmitype/StillImage" />
        <dc:title></dc:title>
      </cc:Work>
    </rdf:RDF>
  </metadata>
  <g
     inkscape:label="Layer 1"
     inkscape:groupmode="layer"
     id="layer1"
     transform="translate(-42.961468,-108.29453)">
    <path
       inkscape:connector-curvature="0"
       id="path14"
       style="fill:#cceef7;fill-opacity:1;fill-rule:nonzero;stroke:none;stroke-width:0.02199247"
       d="m 131.2173,125.82228 c -0.23839,0.59643 -0.64921,-0.13239 -1.02022,-1.06004 0.3886,-0.0398 0.77281,-0.084 1.16164,-0.12359 0.0264,0.42841 -0.009,0.84803 -0.14142,1.18363" />
    <path
       inkscape:connector-curvature="0"
       id="path16"
       style="fill:#cceef7;fill-opacity:1;fill-rule:nonzero;stroke:none;stroke-width:0.02199247"
       d="m 134.09282,124.35582 c -0.10601,0.63162 -0.26061,1.21465 -0.48581,1.40906 -0.25622,0.22542 -0.43722,-0.47262 -0.55664,-1.30306 0.34902,-0.0352 0.69365,-0.0706 1.04245,-0.106" />
    <path
       inkscape:connector-curvature="0"
       id="path18"
       style="fill:#cceef7;fill-opacity:1;fill-rule:nonzero;stroke:none;stroke-width:0.02199247"
       d="m 135.97912,125.27467 c -0.29602,0.19441 -0.65384,-0.34903 -0.96745,-1.01584 0.35341,-0.0398 0.70222,-0.0752 1.05563,-0.11062 0.0972,0.56983 0.0972,1.00286 -0.0882,1.12646" />
    <path
       inkscape:connector-curvature="0"
       id="path20"
       style="fill:#5e6061;fill-opacity:1;fill-rule:nonzero;stroke:none;stroke-width:0.02199247"
       d="m 134.68486,143.42901 1.65625,1.51946 c 0,0 -0.81263,1.06906 -1.40004,0.69804 -0.58764,-0.36661 0.99384,-0.80844 0.99384,-0.80844 l -1.69188,-1.25006 1.89949,-2.05387 c 0.1016,-0.004 0.2076,-0.009 0.31361,-0.0132 l -1.77127,1.90807" />
    <path
       inkscape:connector-curvature="0"
       id="path22"
       style="fill:#5e6061;fill-opacity:1;fill-rule:nonzero;stroke:none;stroke-width:0.02199247"
       d="m 140.4625,145.64651 c -0.58764,0.37102 -1.40026,-0.69804 -1.40026,-0.69804 l 1.65625,-1.51946 -1.88607,-2.03188 c 0.0928,-0.004 0.18561,-0.009 0.28282,-0.0176 l 2.04508,2.20848 -1.69166,1.25005 c 0,0 1.58125,0.44183 0.99384,0.80844" />
    <path
       inkscape:connector-curvature="0"
       id="path24"
       style="fill:#fbc108;fill-opacity:1;fill-rule:nonzero;stroke:none;stroke-width:0.02199247"
       d="m 136.36772,121.41411 c -0.24301,1.56807 -1.69166,0.41962 -1.69628,0 0,-1.09105 1.9349,-1.57246 1.69628,0 z m -3.63975,0.1104 c -0.2428,1.57247 -1.69166,0.42402 -1.69166,0 0,-1.08665 1.93028,-1.56806 1.69166,0 z m 13.36636,18.90098 v -4.7838 c -2.76512,0.18562 -5.53485,0.36662 -8.29996,0.55201 1.49747,-1.92566 2.99054,-3.85593 4.488,-5.78181 l 3.15372,-4.06839 c 0.29163,-0.37102 0.28701,-0.43721 0.28701,-0.91862 v -6.81129 c -4.57598,0.26501 -9.15657,0.53442 -13.73276,0.79943 -1.20145,0.0708 -2.4029,0.14141 -3.60435,0.212 0.0662,1.76688 0.128,3.53815 0.1898,5.30503 0.53904,-0.0574 1.08225,-0.11041 1.62129,-0.16781 0.3886,-0.0398 0.77281,-0.084 1.16164,-0.12359 0.56542,-0.0574 1.12645,-0.1148 1.69165,-0.17683 0.34902,-0.0352 0.69365,-0.0706 1.04245,-0.106 0.30481,-0.0354 0.61403,-0.0662 0.91885,-0.097 0.35341,-0.0398 0.70222,-0.0752 1.05563,-0.11062 0.60523,-0.0662 1.20585,-0.12799 1.81109,-0.18979 0.81723,-0.0884 1.63425,-0.17242 2.45149,-0.25621 -1.64767,2.04507 -3.29513,4.09015 -4.9472,6.13523 -0.93644,1.16626 -1.87728,2.33231 -2.81812,3.49857 -0.53881,0.67143 -1.08225,1.34264 -1.62106,2.01407 -0.26501,0.32702 -0.46822,0.43742 -0.40202,0.83923 0.22982,1.39586 0.53903,2.78732 0.81284,4.17879 0.0706,0.37541 0.0882,0.84363 0.2296,1.19705 0.0972,0.2428 -0.022,0.14119 0.17242,0.20299 0.19419,0.0576 0.53442,-0.0308 0.73763,-0.0396 0.43281,-0.0222 0.87002,-0.0442 1.30745,-0.0708 0.77743,-0.0396 1.55927,-0.0794 2.3411,-0.1236 0.1016,-0.004 0.2076,-0.009 0.31361,-0.0132 0.79063,-0.0398 1.58126,-0.084 2.37629,-0.12382 0.0928,-0.004 0.18561,-0.009 0.28282,-0.0176 1.07763,-0.053 2.15988,-0.1104 3.24213,-0.1678 0.98504,-0.053 1.97008,-0.106 2.95512,-0.15461 0.14119,-0.009 0.62723,0.0486 0.74203,-0.0398 0.10161,-0.0794 0.0398,-0.43721 0.0398,-0.59182" />
    <path
       inkscape:connector-curvature="0"
       id="path26"
       style="fill:#fbc108;fill-opacity:1;fill-rule:nonzero;stroke:none;stroke-width:0.02199247"
       d="m 132.72797,121.52451 c -0.2428,1.57247 -1.69166,0.42402 -1.69166,0 0,-1.08665 1.93028,-1.56806 1.69166,0" />
    <path
       inkscape:connector-curvature="0"
       id="path28"
       style="fill:#fbc108;fill-opacity:1;fill-rule:nonzero;stroke:none;stroke-width:0.02199247"
       d="m 136.36772,121.41411 c -0.24301,1.56807 -1.69166,0.41962 -1.69628,0 0,-1.09105 1.9349,-1.57246 1.69628,0" />
    <path
       inkscape:connector-curvature="0"
       id="path30"
       style="fill:#ffffff;fill-opacity:1;fill-rule:nonzero;stroke:none;stroke-width:0.02199247"
       d="m 132.72797,121.52451 c -0.2428,1.57247 -1.69166,0.42402 -1.69166,0 0,-1.08665 1.93028,-1.56806 1.69166,0" />
    <path
       inkscape:connector-curvature="0"
       id="path32"
       style="fill:#ffffff;fill-opacity:1;fill-rule:nonzero;stroke:none;stroke-width:0.02199247"
       d="m 136.36772,121.41411 c -0.24301,1.56807 -1.69166,0.41962 -1.69628,0 0,-1.09105 1.9349,-1.57246 1.69628,0" />
    <path
       inkscape:connector-curvature="0"
       id="path34"
       style="fill:#100f0d;fill-opacity:1;fill-rule:nonzero;stroke:none;stroke-width:0.02199247"
       d="m 131.97714,121.90014 c -0.19661,0.0356 -0.39432,-0.14867 -0.44161,-0.41148 -0.0475,-0.26281 0.0735,-0.5045 0.27007,-0.53991 0.19662,-0.0354 0.39433,0.14889 0.44161,0.4117 0.0475,0.26259 -0.0735,0.50428 -0.27007,0.53969" />
    <path
       inkscape:connector-curvature="0"
       id="path36"
       style="fill:#100f0d;fill-opacity:1;fill-rule:nonzero;stroke:none;stroke-width:0.02199247"
       d="m 135.6158,121.7871 c -0.19661,0.0354 -0.39433,-0.14889 -0.44161,-0.4117 -0.0475,-0.26259 0.0735,-0.5045 0.27007,-0.53991 0.19661,-0.0354 0.39432,0.14889 0.44182,0.4117 0.0473,0.26259 -0.0737,0.5045 -0.27028,0.53991" />
    <path
       inkscape:connector-curvature="0"
       id="path38"
       style="fill:#5e6061;fill-opacity:1;fill-rule:nonzero;stroke:none;stroke-width:0.02199247"
       d="m 87.715328,141.12882 -0.756761,5.88958 c 0,0 1.513521,-0.73631 1.324166,0 -0.189135,0.73608 -1.607869,0.69936 -1.655153,0.18407 -0.04729,-0.5155 0.835714,-6.07365 0.835714,-6.07365 h 0.252034" />
    <path
       inkscape:connector-curvature="0"
       id="path40"
       style="fill:#5e6061;fill-opacity:1;fill-rule:nonzero;stroke:none;stroke-width:0.02199247"
       d="m 84.944057,141.12882 -0.75676,5.88958 c 0,0 1.513521,-0.73631 1.324385,0 -0.189135,0.73608 -1.608088,0.69936 -1.655373,0.18407 -0.04729,-0.5155 0.835934,-6.07365 0.835934,-6.07365 h 0.251814" />
    <path
       inkscape:connector-curvature="0"
       id="path42"
       style="fill:#98198e;fill-opacity:1;fill-rule:nonzero;stroke:none;stroke-width:0.02199247"
       d="m 86.624941,138.54734 v -5.76862 c 0,0 5.372761,-1.92654 5.372761,2.318 0,4.24455 -5.372761,3.45062 -5.372761,3.45062 z m 0.156147,-14.03779 c 0,0 0,0 0.0044,0.004 0.05718,-0.0264 0.123157,0 0.153947,0.0594 0.0044,0.0132 0.569604,1.22277 1.524078,1.38552 0.530017,0.088 1.082029,-0.14515 1.656032,-0.71035 0.01759,-0.0176 0.03079,-0.0308 0.04838,-0.044 0.01759,-0.0132 0.03739,-0.022 0.05499,-0.0308 0.0132,-0.009 0.02199,-0.009 0.03518,-0.009 0.09237,-0.0176 0.193533,0.0704 0.268309,0.40026 0.140751,0.61579 -0.224323,0.24412 -0.415658,0.0132 -0.03959,0.0374 -0.07917,0.0726 -0.118759,0.10337 0.07477,0.0572 0.131955,0.20233 0.14515,0.48163 0.04398,0.85111 -0.457444,0.0836 -0.61359,-0.16934 -0.04399,0.022 -0.08357,0.044 -0.127557,0.0616 0.03959,0.0902 0.03079,0.23972 -0.05718,0.49044 -0.274906,0.76094 -0.437651,0 -0.490433,-0.33429 -0.05278,0.004 -0.105564,0.009 -0.158346,0.009 -0.05718,0 -0.116559,-0.004 -0.17374,-0.009 0.0132,0.0924 -0.04399,0.23312 -0.211127,0.44205 -0.591598,0.73235 -0.358477,-0.45524 -0.327689,-0.60699 -0.11436,-0.0572 -0.215525,-0.11876 -0.312292,-0.19794 -0.05718,0.0924 -0.17374,0.20673 -0.376072,0.34089 -1.016051,0.65318 -0.136353,-0.83132 -0.136353,-0.83132 0,0 0.0044,0 0.0088,0 -0.08357,-0.10116 -0.156148,-0.20233 -0.213329,-0.2925 -0.07917,0.0462 -0.211127,0.0814 -0.424454,0.0858 -0.99186,0.0308 0.257312,-0.64218 0.257312,-0.64218 z m 7.79633,10.33206 c -0.202332,-3.03056 -2.054098,-5.34417 -4.904321,-6.37782 2.548928,-1.54167 4.229151,-4.48866 3.586971,-7.48183 -0.64438,-3.01737 -3.083343,-4.93951 -5.926969,-5.78622 -1.405318,-0.41566 -2.911804,-0.65098 -4.376502,-0.61579 -0.0044,4.74378 -0.0088,9.48975 -0.0132,14.23353 0,3.36924 -0.0044,6.74069 -0.0088,10.10554 v 1.70441 c 0,0.35408 -0.08577,0.36288 0.197932,0.46404 0.35408,0.12756 0.875302,0.10116 1.244775,0.13195 0.09897,0.009 0.200131,0.0132 0.296898,0.0198 0.08357,0.009 0.167143,0.0132 0.250714,0.0132 0.0022,0 0.0022,0 0.0044,0 0.567406,0.0308 1.134811,0.0396 1.702217,0.022 0.268309,-0.009 0.543215,-0.022 0.811522,-0.0462 0.0022,0 0.0022,0 0.0044,0 0.08577,-0.004 0.171541,-0.009 0.257311,-0.0176 0.0022,0 0.0022,0 0.0044,0 1.082029,-0.0924 2.150863,-0.2903 3.166915,-0.67076 2.500544,-0.93688 3.886069,-3.01298 3.701332,-5.69825" />
    <path
       inkscape:connector-curvature="0"
       id="path44"
       style="fill:#ffffff;fill-opacity:1;fill-rule:nonzero;stroke:none;stroke-width:0.02199247"
       d="m 90.111627,125.57948 c -0.03981,0.0354 -0.07961,0.0706 -0.119419,0.10161 0.07521,0.0574 0.132614,0.20321 0.14581,0.48141 0.04421,0.85243 -0.459422,0.0838 -0.614031,-0.1678 -0.04421,0.022 -0.08379,0.044 -0.127995,0.0618 0.0398,0.0884 0.03079,0.23862 -0.0574,0.49043 -0.274026,0.75963 -0.43743,0 -0.490432,-0.33582 -0.053,0.004 -0.106004,0.009 -0.159005,0.009 -0.0574,0 -0.114801,-0.004 -0.172201,-0.009 0.0132,0.0928 -0.04421,0.23399 -0.212007,0.44183 -0.592038,0.73322 -0.357818,-0.45503 -0.326809,-0.60523 -0.11502,-0.0574 -0.216625,-0.11942 -0.313612,-0.19881 -0.05762,0.0928 -0.172421,0.2076 -0.375631,0.34021 -1.015833,0.65362 -0.136794,-0.83065 -0.136794,-0.83065 0,0 0.0044,0 0.0088,0 -0.08401,-0.10138 -0.154608,-0.20299 -0.212008,-0.2914 -0.07961,0.0442 -0.212007,0.0796 -0.424014,0.084 -0.993841,0.0308 0.256212,-0.64064 0.256212,-0.64064 0,0 0,0 0.0044,0.004 0.0574,-0.0264 0.123597,0 0.154606,0.0574 0.0044,0.0134 0.569826,1.22366 1.523859,1.38707 0.530017,0.0884 1.082248,-0.14581 1.656471,-0.71124 0.01759,-0.0176 0.03079,-0.0308 0.0486,-0.044 0.01759,-0.0134 0.03518,-0.0222 0.053,-0.031 0.0132,-0.009 0.02199,-0.009 0.03519,-0.009 0.09281,-0.0176 0.194411,0.0706 0.269626,0.40202 0.141192,0.61381 -0.225422,0.2428 -0.415217,0.0132" />
    <path
       inkscape:connector-curvature="0"
       id="path46"
       style="fill:#ffffff;fill-opacity:1;fill-rule:nonzero;stroke:none;stroke-width:0.02199247"
       d="m 89.307582,121.4427 c -6.86e-4,-1.40774 2.502744,-2.03342 2.190011,0 -0.312954,2.03342 -2.18979,0.5474 -2.190011,0" />
    <path
       inkscape:connector-curvature="0"
       id="path48"
       style="fill:#ffffff;fill-opacity:1;fill-rule:nonzero;stroke:none;stroke-width:0.02199247"
       d="m 85.073812,120.01781 c -6.86e-4,-1.40774 2.502744,-2.03343 2.190011,0 -0.312954,2.03342 -2.18979,0.54739 -2.190011,0" />
    <path
       inkscape:connector-curvature="0"
       id="path50"
       style="fill:#100f0d;fill-opacity:1;fill-rule:nonzero;stroke:none;stroke-width:0.02199247"
       d="m 91.308898,121.69034 c 0,0.20914 -0.311195,0.37893 -0.695183,0.37893 -0.383989,0 -0.695182,-0.16979 -0.695182,-0.37893 0,-0.20938 0.311193,-0.37894 0.695182,-0.37894 0.383988,0 0.695183,0.16956 0.695183,0.37894" />
    <path
       inkscape:connector-curvature="0"
       id="path52"
       style="fill:#100f0d;fill-opacity:1;fill-rule:nonzero;stroke:none;stroke-width:0.02199247"
       d="m 87.086123,120.26544 c 0,0.20915 -0.311193,0.37893 -0.695181,0.37893 -0.383989,0 -0.695183,-0.16978 -0.695183,-0.37893 0,-0.20936 0.311194,-0.37915 0.695183,-0.37915 0.383988,0 0.695181,0.16979 0.695181,0.37915" />
    <path
       inkscape:connector-curvature="0"
       id="path54"
       style="fill:#ffffff;fill-opacity:1;fill-rule:nonzero;stroke:none;stroke-width:0.02199247"
       d="m 90.222028,125.17306 c -0.01781,0.009 -0.0354,0.0176 -0.053,0.031 v -0.004 c 0.0132,-0.0176 0.03079,-0.0264 0.053,-0.0264" />
    <path
       inkscape:connector-curvature="0"
       id="path56"
       style="fill:#cceef7;fill-opacity:1;fill-rule:nonzero;stroke:none;stroke-width:0.02199247"
       d="m 45.282029,122.54936 c -0.05302,0.3444 -0.176644,0.64042 -0.423967,0.78623 -0.313652,0.181 -0.490363,-0.15021 -0.583145,-0.63162 0.33573,-0.053 0.671458,-0.10601 1.007112,-0.15461" />
    <path
       inkscape:connector-curvature="0"
       id="path58"
       style="fill:#cceef7;fill-opacity:1;fill-rule:nonzero;stroke:none;stroke-width:0.02199247"
       d="m 47.503862,122.20474 c -0.03532,0.58302 -0.167781,1.10424 -0.507982,1.17945 -0.362194,0.0838 -0.512359,-0.41983 -0.565361,-1.01165 0.357818,-0.0574 0.715525,-0.1104 1.073343,-0.1678" />
    <path
       inkscape:connector-curvature="0"
       id="path60"
       style="fill:#cceef7;fill-opacity:1;fill-rule:nonzero;stroke:none;stroke-width:0.02199247"
       d="m 49.884722,121.83813 c -0.03532,0.45062 -0.128106,0.90982 -0.340113,1.21903 -0.287112,0.41985 -0.477061,-0.2782 -0.591906,-1.07322 0.309171,-0.0486 0.618363,-0.0972 0.932019,-0.14581" />
    <path
       inkscape:connector-curvature="0"
       id="path62"
       style="fill:#cceef7;fill-opacity:1;fill-rule:nonzero;stroke:none;stroke-width:0.02199247"
       d="m 52.190479,121.4847 c -0.189927,0.62283 -0.569826,1.71827 -0.909939,1.90829 -0.300417,0.1678 -0.229711,-0.91005 -0.128084,-1.74928 0.34449,-0.053 0.689068,-0.106 1.038023,-0.15901" />
    <path
       inkscape:connector-curvature="0"
       id="path64"
       style="fill:#cceef7;fill-opacity:1;fill-rule:nonzero;stroke:none;stroke-width:0.02199247"
       d="m 53.073872,123.41059 c -0.410797,0.1634 -0.631668,-1.23246 -0.71999,-1.94788 0.304794,-0.0486 0.613986,-0.0972 0.91878,-0.14141 0.0751,0.95866 0.08832,1.97888 -0.19879,2.08929" />
    <path
       inkscape:connector-curvature="0"
       id="path66"
       style="fill:#5e6061;fill-opacity:1;fill-rule:nonzero;stroke:none;stroke-width:0.02199247"
       d="m 53.970592,146.27373 c -0.03541,0.51683 -1.139649,0.55201 -1.289835,-0.18122 -0.145788,-0.73762 1.033557,0 1.033557,0 l -0.560961,-5.58762 c 0.06631,-0.004 0.136925,-0.009 0.203254,-0.0176 0.141323,1.14405 0.644907,5.34461 0.613985,5.78644" />
    <path
       inkscape:connector-curvature="0"
       id="path68"
       style="fill:#5e6061;fill-opacity:1;fill-rule:nonzero;stroke:none;stroke-width:0.02199247"
       d="m 56.444129,146.11033 c -0.0353,0.51682 -1.139649,0.55201 -1.285349,-0.18562 -0.150165,-0.73323 1.029181,0 1.029181,0 l -0.560984,-5.64062 c 0.06624,-0.004 0.128084,-0.0132 0.194326,-0.0176 0.13257,1.05563 0.658234,5.38881 0.622826,5.84383" />
    <path
       inkscape:connector-curvature="0"
       id="path70"
       style="fill:#18abe3;fill-opacity:1;fill-rule:nonzero;stroke:none;stroke-width:0.02199247"
       d="m 55.781606,117.72136 c -0.167846,1.07784 -1.16173,0.29161 -1.16173,0 0,-0.74203 1.325134,-1.07346 1.16173,0 z m 3.114002,2.19968 c -0.163383,1.07785 -1.157266,0.29162 -1.157266,0 0,-0.74643 1.325134,-1.07785 1.157266,0 z m -5.993981,15.52184 c 1.272132,-2.34549 2.5398,-4.68659 3.807534,-7.02769 0.821638,-1.51506 1.63879,-3.03012 2.460319,-4.54518 0.362194,-0.66704 0.750933,-1.32945 1.08667,-2.00549 0.212007,-0.42842 0.119221,-0.88762 0.114844,-1.36486 -0.01771,-1.61226 -0.03539,-3.22431 -0.04863,-4.8368 -4.629149,0.26083 -9.2583,0.52584 -13.887472,0.79085 -1.192564,0.0662 -2.38523,0.13239 -3.573424,0.20321 0.265027,2.04508 0.530054,4.09016 0.799461,6.13985 0.203259,-0.031 0.410813,-0.062 0.613984,-0.0928 0.33573,-0.053 0.671458,-0.10601 1.007112,-0.15461 0.379964,-0.0618 0.764238,-0.11942 1.14849,-0.17682 0.357818,-0.0574 0.715525,-0.1104 1.073343,-0.1678 0.481503,-0.0706 0.96294,-0.14581 1.448841,-0.2208 0.309171,-0.0486 0.618363,-0.0972 0.932019,-0.14581 0.419573,-0.0618 0.843697,-0.128 1.267734,-0.19442 0.34449,-0.053 0.689068,-0.106 1.038023,-0.15901 0.07948,-0.2562 0.123641,-0.42841 0.123641,-0.42841 0,0 0.01322,0.1634 0.03976,0.40642 0.304794,-0.0486 0.613986,-0.0972 0.918779,-0.14141 0.101562,-0.0176 0.203189,-0.031 0.304816,-0.0486 0.856937,-0.1324 1.718249,-0.26501 2.575186,-0.39763 -1.696169,2.58411 -3.396825,5.16823 -5.092993,7.75213 -0.772991,1.17945 -1.545983,2.35429 -2.318996,3.52935 -0.596282,0.91004 -1.192652,1.81548 -1.793332,2.7253 -0.282713,0.43304 -0.812775,0.98065 -0.971781,1.47988 -0.07071,0.2252 0.01322,0.56081 0.03092,0.79942 0.0353,0.51683 0.07071,1.03365 0.11038,1.55047 0.05302,0.80383 0.11049,1.61227 0.167868,2.4161 2.288075,-0.20761 4.580635,-0.41523 6.868621,-0.62283 0.06631,-0.004 0.136926,-0.009 0.203255,-0.0176 0.0353,0 0.07508,-0.004 0.11038,-0.009 0.720012,-0.0664 1.440001,-0.12822 2.15999,-0.19441 0.06624,-0.004 0.128084,-0.0132 0.194326,-0.0176 0.746534,-0.0708 1.497378,-0.13702 2.243913,-0.20322 0.67585,-0.062 1.413543,-0.0486 2.076067,-0.19001 0.0883,-0.0176 0.194325,0.009 0.24295,-0.0486 0.136925,-0.13679 0.119243,-0.79942 0.145789,-0.98943 0.203166,-1.41346 0.406332,-2.82692 0.609499,-4.23598 -2.747409,0.27821 -5.490464,0.56103 -8.237894,0.84364" />
    <path
       inkscape:connector-curvature="0"
       id="path72"
       style="fill:#18abe3;fill-opacity:1;fill-rule:nonzero;stroke:none;stroke-width:0.02199247"
       d="m 52.353882,121.46271 c -0.05738,0.004 -0.11038,0.0132 -0.163403,0.022 0.07948,-0.25621 0.123641,-0.42842 0.123641,-0.42842 0,0 0.01322,0.16341 0.03976,0.40643" />
    <path
       inkscape:connector-curvature="0"
       id="path74"
       style="fill:#18abe3;fill-opacity:1;fill-rule:nonzero;stroke:none;stroke-width:0.02199247"
       d="m 55.781606,117.72136 c -0.167846,1.07784 -1.16173,0.29161 -1.16173,0 0,-0.74203 1.325134,-1.07346 1.16173,0" />
    <path
       inkscape:connector-curvature="0"
       id="path76"
       style="fill:#18abe3;fill-opacity:1;fill-rule:nonzero;stroke:none;stroke-width:0.02199247"
       d="m 58.895608,119.92104 c -0.163383,1.07785 -1.157266,0.29162 -1.157266,0 0,-0.74643 1.325134,-1.07785 1.157266,0" />
    <path
       inkscape:connector-curvature="0"
       id="path78"
       style="fill:#ffffff;fill-opacity:1;fill-rule:nonzero;stroke:none;stroke-width:0.02199247"
       d="m 55.781606,117.72136 c -0.167846,1.07784 -1.16173,0.29161 -1.16173,0 0,-0.74203 1.325134,-1.07346 1.16173,0" />
    <path
       inkscape:connector-curvature="0"
       id="path80"
       style="fill:#ffffff;fill-opacity:1;fill-rule:nonzero;stroke:none;stroke-width:0.02199247"
       d="m 58.895608,119.92104 c -0.163383,1.07785 -1.157266,0.29162 -1.157266,0 0,-0.74643 1.325134,-1.07785 1.157266,0" />
    <path
       inkscape:connector-curvature="0"
       id="path82"
       style="fill:#100f0d;fill-opacity:1;fill-rule:nonzero;stroke:none;stroke-width:0.02199247"
       d="m 55.404479,117.65296 c 0,0.10798 -0.08762,0.19573 -0.195689,0.19573 -0.108071,0 -0.195622,-0.0877 -0.195622,-0.19573 0,-0.1082 0.08755,-0.19574 0.195622,-0.19574 0.108071,0 0.195689,0.0875 0.195689,0.19574" />
    <path
       inkscape:connector-curvature="0"
       id="path84"
       style="fill:#100f0d;fill-opacity:1;fill-rule:nonzero;stroke:none;stroke-width:0.02199247"
       d="m 58.520548,119.85111 c 0,0.1082 -0.08764,0.19573 -0.195623,0.19573 -0.108071,0 -0.195689,-0.0875 -0.195689,-0.19573 0,-0.10798 0.08762,-0.19574 0.195689,-0.19574 0.107983,0 0.195623,0.0878 0.195623,0.19574" />
    <path
       inkscape:connector-curvature="0"
       id="path86"
       style="fill:#cceef7;fill-opacity:1;fill-rule:nonzero;stroke:none;stroke-width:0.02199247"
       d="m 73.238127,141.28672 c -0.344623,0.62283 -0.998237,1.57246 -1.722669,1.53288 -0.76424,-0.0398 0.167801,-1.27227 0.764018,-1.97009 0.393225,-0.004 0.684845,0.053 0.958651,0.43721" />
    <path
       inkscape:connector-curvature="0"
       id="path88"
       style="fill:#cceef7;fill-opacity:1;fill-rule:nonzero;stroke:none;stroke-width:0.02199247"
       d="m 79.801998,142.32476 c -0.41082,0.14582 -0.945237,-0.1148 -1.418073,-0.446 -0.127997,-0.36661 -0.353201,-0.71123 -0.702221,-1.02485 0.313613,0 0.667031,0.0308 1.02485,0.0442 0.75522,0.49901 1.674066,1.21904 1.095444,1.42665" />
    <path
       inkscape:connector-curvature="0"
       id="path90"
       style="fill:#5e6061;fill-opacity:1;fill-rule:nonzero;stroke:none;stroke-width:0.02199247"
       d="m 81.767465,111.91732 c -0.419616,0.62261 -0.728831,-0.72883 -0.728831,-0.72883 l -2.619303,3.19793 c -0.09721,0 -0.198811,0.004 -0.295798,0.004 1.05124,-1.33406 2.610506,-3.29513 2.8621,-3.51593 0.388826,-0.34023 1.197049,0.41499 0.781832,1.04244" />
    <path
       inkscape:connector-curvature="0"
       id="path92"
       style="fill:#5e6061;fill-opacity:1;fill-rule:nonzero;stroke:none;stroke-width:0.02199247"
       d="m 63.829661,114.63383 c -0.06633,0 -0.13257,0.004 -0.19879,0.004 l -1.992122,-5.27843 c 0,0 -0.662611,1.14382 -0.861401,0.41961 -0.19879,-0.72003 0.737694,-1.13525 0.993862,-0.68902 0.229712,0.4018 1.727091,4.61578 2.058451,5.54342" />
    <path
       inkscape:connector-curvature="0"
       id="path94"
       style="fill:#323292;fill-opacity:1;fill-rule:nonzero;stroke:none;stroke-width:0.02199247"
       d="m 67.716698,138.29201 c -0.198811,1.29865 -1.40026,0.3488 -1.40026,0 0,-0.90126 1.603471,-1.30305 1.40026,0" />
    <path
       inkscape:connector-curvature="0"
       id="path96"
       style="fill:#323292;fill-opacity:1;fill-rule:nonzero;stroke:none;stroke-width:0.02199247"
       d="m 78.944952,138.29201 c -0.198811,1.29865 -1.40026,0.3488 -1.40026,0 0,-0.90126 1.599071,-1.30305 1.40026,0" />
    <path
       inkscape:connector-curvature="0"
       id="path98"
       style="fill:#ffffff;fill-opacity:1;fill-rule:nonzero;stroke:none;stroke-width:0.02199247"
       d="m 67.716698,138.29201 c -0.198811,1.29865 -1.40026,0.3488 -1.40026,0 0,-0.90126 1.603471,-1.30305 1.40026,0" />
    <path
       inkscape:connector-curvature="0"
       id="path100"
       style="fill:#323292;fill-opacity:1;fill-rule:nonzero;stroke:none;stroke-width:0.02199247"
       d="m 78.944952,138.29201 c -0.198811,1.29865 -1.40026,0.3488 -1.40026,0 0,-0.90126 1.599071,-1.30305 1.40026,0 z m -11.228254,0 c -0.198811,1.29865 -1.40026,0.3488 -1.40026,0 0,-0.90126 1.603471,-1.30305 1.40026,0 z m 12.248705,1.03364 v -4.06376 c 0,-0.58324 0.03079,-0.52562 -0.534417,-0.53024 -0.857046,-0.004 -1.713874,-0.009 -2.570921,-0.0132 -1.064434,-0.009 -2.124472,-0.0176 -3.184729,-0.022 -1.63426,-0.0132 -3.268739,-0.0222 -4.8986,-0.0354 0.0132,-0.49021 0.03101,-0.98504 0.04421,-1.47966 0.0044,-0.159 -0.0706,-0.75984 0.02661,-0.87464 0.0662,-0.0752 0.618208,-0.004 0.719813,-0.004 1.126453,-0.0132 2.24829,-0.0222 3.370345,-0.031 -0.01759,-0.90103 -0.03541,-1.79766 -0.0574,-2.69891 -0.0044,-0.3532 -0.0132,-0.70222 -0.02199,-1.05564 -0.0046,-0.31801 -0.01341,-0.63602 -0.01782,-0.95403 -0.0044,-0.1236 0.0574,-0.53881 -0.0132,-0.64042 -0.119199,-0.15923 -0.75984,-0.062 -0.989441,-0.062 h -3.944568 c 0.03101,-1.33824 0.0618,-2.67231 0.09281,-4.01055 0.01759,-0.92764 0.03981,-1.85528 0.0618,-2.78292 0.0044,-0.16341 -0.08379,-0.78623 0.02221,-0.90983 0.0574,-0.0664 0.353199,-0.0442 0.450405,-0.0488 3.149542,-0.1942 6.298862,-0.39301 9.448404,-0.58742 0.331207,-0.022 0.278204,0.0354 0.322409,-0.27821 0.0662,-0.51682 0.03519,-1.06443 0.053,-1.58565 0.02199,-0.75545 0.0486,-1.51089 0.07499,-2.27051 -0.09721,0 -0.198811,0.004 -0.295798,0.004 -3.812174,0.0662 -7.619731,0.12799 -11.427287,0.19441 -0.954033,0.0176 -1.912574,0.0308 -2.866585,0.0486 -0.06633,0 -0.132571,0.004 -0.19879,0.004 h -0.02654 c 0.159005,4.53198 0.318032,9.06837 0.477038,13.60036 0.110403,3.08313 0.216495,6.16625 0.326875,9.24937 0.02208,0.71124 0.04863,1.42248 0.07508,2.13789 0.0089,0.27843 -0.09276,0.91445 0.03979,1.16626 0.110402,0.21641 0.371079,0.1192 0.671276,0.1148 0.835054,-0.004 1.665269,-0.009 2.500324,-0.0176 1.338241,-0.009 2.6811,-0.0178 4.023962,-0.0266 0.212006,0 0.397403,-0.0132 0.560808,-0.0132 0.393225,-0.004 0.684845,0.053 0.958651,0.43721 0.0486,0.0574 0.08841,0.12382 0.132394,0.19882 0.649439,1.17044 -0.578622,2.2175 -1.462059,2.7827 1.223661,0.96745 2.451501,1.9349 3.675162,2.90213 0.287,0.2252 0.247415,0.22081 0.516822,-0.0486 0.538815,-0.53002 1.033645,-1.11304 1.457661,-1.74027 0.697821,-1.03804 1.227839,-2.36331 0.825818,-3.50274 -0.127997,-0.36661 -0.353201,-0.71123 -0.702222,-1.02485 0.313614,0 0.667032,0.0308 1.024851,0.0442 0.362216,0.0132 0.720033,0.0176 1.033644,-0.0442 0.300198,-0.053 0.189796,0.053 0.225205,-0.26941 0.04421,-0.41082 0,-0.84824 0,-1.25884" />
    <path
       inkscape:connector-curvature="0"
       id="path102"
       style="fill:#ffffff;fill-opacity:1;fill-rule:nonzero;stroke:none;stroke-width:0.02199247"
       d="m 78.944952,138.29201 c -0.198811,1.29865 -1.40026,0.3488 -1.40026,0 0,-0.90126 1.599071,-1.30305 1.40026,0" />
    <path
       inkscape:connector-curvature="0"
       id="path104"
       style="fill:#100f0d;fill-opacity:1;fill-rule:nonzero;stroke:none;stroke-width:0.02199247"
       d="m 67.460486,138.53415 c 0,0.12118 -0.194194,0.21926 -0.433471,0.21926 -0.239498,0 -0.433693,-0.0981 -0.433693,-0.21926 0,-0.12096 0.194195,-0.21905 0.433693,-0.21905 0.239277,0 0.433471,0.0981 0.433471,0.21905" />
    <path
       inkscape:connector-curvature="0"
       id="path106"
       style="fill:#100f0d;fill-opacity:1;fill-rule:nonzero;stroke:none;stroke-width:0.02199247"
       d="m 78.68654,138.53415 c 0,0.12118 -0.194193,0.21926 -0.433472,0.21926 -0.239498,0 -0.433691,-0.0981 -0.433691,-0.21926 0,-0.12096 0.194193,-0.21905 0.433691,-0.21905 0.239279,0 0.433472,0.0981 0.433472,0.21905" />
    <path
       inkscape:connector-curvature="0"
       id="path108"
       style="fill:#eb1f38;fill-opacity:1;fill-rule:nonzero;stroke:none;stroke-width:0.02199247"
       d="m 120.40427,109.54961 c -0.20321,1.30306 -1.40906,0.34902 -1.40906,0 0,-0.90543 1.60787,-1.30745 1.40906,0" />
    <path
       inkscape:connector-curvature="0"
       id="path110"
       style="fill:#eb1f38;fill-opacity:1;fill-rule:nonzero;stroke:none;stroke-width:0.02199247"
       d="m 127.43196,109.88984 c -0.19001,1.24103 -1.33406,0.3356 -1.33406,0 0,-0.85705 1.52386,-1.23686 1.33406,0" />
    <path
       inkscape:connector-curvature="0"
       id="path112"
       style="fill:#5e6061;fill-opacity:1;fill-rule:nonzero;stroke:none;stroke-width:0.02199247"
       d="m 123.60659,145.91592 c -0.0972,0.36661 -0.80382,0.34902 -0.83043,0.0928 -0.0132,-0.13701 0.1104,-1.01165 0.22982,-1.78886 0.0574,-0.0398 0.1148,-0.0796 0.1722,-0.12382 l -0.23423,1.81988 c 0,0 0.75545,-0.36662 0.66264,0" />
    <path
       inkscape:connector-curvature="0"
       id="path114"
       style="fill:#5e6061;fill-opacity:1;fill-rule:nonzero;stroke:none;stroke-width:0.02199247"
       d="m 118.27957,146.11473 c -0.0928,0.37101 -0.80404,0.35342 -0.82603,0.0928 -0.009,-0.0884 0.0354,-0.47723 0.106,-0.94545 0.053,0.009 0.10601,0.0134 0.16341,0.0222 l -0.10601,0.83044 c 0,0 0.75545,-0.36662 0.66263,0" />
    <path
       inkscape:connector-curvature="0"
       id="path116"
       style="fill:#5e6061;fill-opacity:1;fill-rule:nonzero;stroke:none;stroke-width:0.02199247"
       d="m 116.99412,146.11473 c -0.0928,0.37101 -0.80383,0.35342 -0.82604,0.0928 -0.009,-0.1016 0.0532,-0.60082 0.13262,-1.16186 0.053,0.0134 0.11039,0.0266 0.1634,0.0354 l -0.1324,1.03365 c 0,0 0.75523,-0.36661 0.66242,0" />
    <path
       inkscape:connector-curvature="0"
       id="path118"
       style="fill:#5e6061;fill-opacity:1;fill-rule:nonzero;stroke:none;stroke-width:0.02199247"
       d="m 122.21975,145.91592 c -0.0928,0.36661 -0.80405,0.34902 -0.82604,0.0928 -0.009,-0.0972 0.0442,-0.53903 0.1192,-1.05563 0.0574,-0.0178 0.1192,-0.0354 0.1766,-0.0576 l -0.1324,1.02045 c 0,0 0.75962,-0.36661 0.66264,0" />
    <path
       inkscape:connector-curvature="0"
       id="path120"
       style="fill:#ffffff;fill-opacity:1;fill-rule:nonzero;stroke:none;stroke-width:0.02199247"
       d="m 120.40427,109.54961 c -0.20321,1.30306 -1.40906,0.34902 -1.40906,0 0,-0.90543 1.60787,-1.30745 1.40906,0" />
    <path
       inkscape:connector-curvature="0"
       id="path122"
       style="fill:#ffffff;fill-opacity:1;fill-rule:nonzero;stroke:none;stroke-width:0.02199247"
       d="m 127.43196,109.88984 c -0.19001,1.24103 -1.33406,0.3356 -1.33406,0 0,-0.85705 1.52386,-1.23686 1.33406,0" />
    <path
       inkscape:connector-curvature="0"
       id="path124"
       style="fill:#cceef7;fill-opacity:1;fill-rule:nonzero;stroke:none;stroke-width:0.02199247"
       d="m 128.6598,117.15593 c -0.1148,0.2164 -1.06883,-0.0574 -1.54607,-0.20761 0.0664,0.0176 0.13262,0.031 0.20321,0.0574 0.009,-0.004 0.0178,-0.009 0.031,-0.009 l 0.27381,-0.60502 c 0.49043,0.2296 1.13525,0.57862 1.03805,0.76402" />
    <path
       inkscape:connector-curvature="0"
       id="path126"
       style="fill:#cceef7;fill-opacity:1;fill-rule:nonzero;stroke:none;stroke-width:0.02199247"
       d="m 129.94966,115.33166 c -0.13261,0.25181 -1.37827,-0.15021 -1.72707,-0.26942 l 0.30482,-0.66702 c 0.3974,0.1678 1.55025,0.69364 1.42225,0.93644" />
    <path
       inkscape:connector-curvature="0"
       id="path128"
       style="fill:#cceef7;fill-opacity:1;fill-rule:nonzero;stroke:none;stroke-width:0.02199247"
       d="m 128.94702,116.14889 c -0.0884,0.16781 -0.68462,0.0398 -1.17066,-0.0972 l 0.27381,-0.60084 c 0.46382,0.22982 0.98504,0.53024 0.89685,0.69804" />
    <path
       inkscape:connector-curvature="0"
       id="path130"
       style="fill:#eb1f38;fill-opacity:1;fill-rule:nonzero;stroke:none;stroke-width:0.02199247"
       d="m 127.10493,116.94392 c -0.0264,-0.004 -0.0486,-0.009 -0.075,-0.0176 v -0.009 c 0.022,0.009 0.0486,0.0176 0.075,0.0264" />
    <path
       inkscape:connector-curvature="0"
       id="path132"
       style="fill:#eb1f38;fill-opacity:1;fill-rule:nonzero;stroke:none;stroke-width:0.02199247"
       d="m 120.40427,109.54961 c -0.20321,1.30306 -1.40906,0.34902 -1.40906,0 0,-0.90543 1.60787,-1.30745 1.40906,0 z m 5.69363,0.34023 c 0,-0.85705 1.52386,-1.23686 1.33406,0 -0.19001,1.24103 -1.33406,0.3356 -1.33406,0 z m 2.4339,4.49658 c -0.75544,-0.34463 -1.56806,-0.60963 -2.3941,-0.73763 0.26941,-1.11304 0.64042,-2.2661 1.09545,-2.84473 1.03365,-1.31185 0.3356,-2.48229 -1.10424,-1.70947 -1.44007,0.77303 0.30921,1.97888 0.30921,1.97888 l -0.58324,2.53551 c -1.04684,-0.12799 -2.11567,-0.0354 -3.11391,0.38443 -0.53464,0.22521 -1.01605,0.53002 -1.44007,0.90103 -0.43721,-1.88629 -0.83044,-4.01956 -0.64042,-4.85461 0.37541,-1.62965 -0.75544,-2.38949 -1.72707,-1.07763 -0.97184,1.31624 1.12184,1.66087 1.12184,1.66087 l 0.98504,4.50977 c -0.60963,0.58764 -1.09984,1.30767 -1.45326,2.08951 -1.60347,3.51153 -0.73763,7.4649 0.40202,10.97643 1.02463,3.15835 2.52649,6.53287 2.05388,9.93862 -0.32241,2.31888 -1.94348,3.85176 -4.36419,3.76775 -0.1148,-0.004 -0.4504,-0.0972 -0.55201,-0.0486 -0.0662,0.031 -0.0398,0.0708 -0.1016,0.14142 -0.24302,0.29161 -0.35782,0.85243 -0.50803,1.20584 -0.2384,0.57422 -0.48142,1.14845 -0.72443,1.72267 0.1678,0.0442 0.33582,0.084 0.50803,0.11921 0.053,0.0134 0.11039,0.0266 0.1634,0.0354 0.35781,0.075 0.72443,0.13701 1.09544,0.18099 0.053,0.009 0.10601,0.0134 0.16341,0.0222 1.28546,0.13702 2.59731,0.0706 3.78996,-0.3312 0.0574,-0.0178 0.1192,-0.0354 0.1766,-0.0576 0.45942,-0.1722 0.90125,-0.39301 1.31647,-0.67561 0.0574,-0.0398 0.1148,-0.0796 0.1722,-0.12382 0.30481,-0.2252 0.59621,-0.49021 0.86584,-0.79063 1.69166,-1.90389 2.18627,-4.81459 1.94787,-7.27511 -0.30041,-3.15812 -1.82867,-5.98964 -2.91092,-8.91377 -1.05564,-2.85769 -1.55927,-6.14425 0.31362,-8.80336 0.87024,-1.23664 2.2661,-1.72707 3.63535,-1.38684 v -0.009 c 0.022,0.009 0.0486,0.0176 0.075,0.0264 0,0.004 0.004,0.004 0.009,0.004 0.0664,0.0176 0.13262,0.031 0.20321,0.0574 0.009,-0.004 0.0178,-0.009 0.031,-0.009 l 0.27381,-0.60502 0.1546,-0.34022 0.27381,-0.60083 0.17242,-0.38861 0.30482,-0.66703 c -0.004,0 -0.004,-0.004 -0.004,-0.004 l 0.009,-0.004" />
    <path
       inkscape:connector-curvature="0"
       id="path134"
       style="fill:#eb1f38;fill-opacity:1;fill-rule:nonzero;stroke:none;stroke-width:0.02199247"
       d="m 128.5318,114.38642 -0.004,0.009 c -0.004,0 -0.004,-0.004 -0.004,-0.004 l 0.009,-0.004" />
    <path
       inkscape:connector-curvature="0"
       id="path136"
       style="fill:#100f0d;fill-opacity:1;fill-rule:nonzero;stroke:none;stroke-width:0.02199247"
       d="m 127.28131,109.81154 c 0,0.14032 -0.11392,0.25424 -0.25445,0.25424 -0.14031,0 -0.25424,-0.11392 -0.25424,-0.25424 0,-0.14053 0.11393,-0.25445 0.25424,-0.25445 0.14053,0 0.25445,0.11392 0.25445,0.25445" />
    <path
       inkscape:connector-curvature="0"
       id="path138"
       style="fill:#100f0d;fill-opacity:1;fill-rule:nonzero;stroke:none;stroke-width:0.02199247"
       d="m 120.24438,109.46318 c 0,0.14779 -0.12008,0.26787 -0.26786,0.26787 -0.14801,0 -0.26787,-0.12008 -0.26787,-0.26787 0,-0.14801 0.11986,-0.26787 0.26787,-0.26787 0.14778,0 0.26786,0.11986 0.26786,0.26787" />
    <path
       inkscape:connector-curvature="0"
       id="path140"
       style="fill:#5e6061;fill-opacity:1;fill-rule:nonzero;stroke:none;stroke-width:0.02199247"
       d="m 104.05199,141.37865 v 5.04287 c 0,0 -1.14119,-0.2208 -1.06751,0.25775 0.0737,0.47856 1.43544,0 1.43544,0 v -5.30062 h -0.36793" />
    <path
       inkscape:connector-curvature="0"
       id="path142"
       style="fill:#5e6061;fill-opacity:1;fill-rule:nonzero;stroke:none;stroke-width:0.02199247"
       d="m 106.39837,141.37865 c 0,0 0.96634,3.12887 1.2241,3.20254 0.25753,0.0735 2.31889,-1.10424 2.31889,-1.10424 0,0 0.0737,0.83616 0.36815,0.87816 0.29447,0.042 -0.18408,-1.37343 -0.18408,-1.37343 l -2.35584,1.15372 -1.10423,-3.00658 -0.26699,0.24983" />
    <path
       inkscape:connector-curvature="0"
       id="path144"
       style="fill:#ea097f;fill-opacity:1;fill-rule:nonzero;stroke:none;stroke-width:0.02199247"
       d="m 109.90023,135.6329 c -0.14581,0.075 -0.2914,0.1148 -0.43722,0.1148 h -0.0132 c -0.60084,0.94524 -1.22806,1.66967 -1.89069,2.17329 0.1148,0.1324 0.2032,0.38861 0.23421,0.83484 0.11041,1.58565 -0.84803,0.1722 -1.14405,-0.29162 -0.42841,0.19441 -0.87024,0.30042 -1.32086,0.31801 h -0.128 c -2.30129,0 -3.97536,-2.25709 -4.05057,-2.3543 l 0.35782,-0.2606 c 0.0178,0.022 1.66527,2.24829 3.80316,2.17329 1.32526,-0.053 2.57069,-0.96745 3.70154,-2.73432 -0.2694,-0.16341 -0.40641,-0.44161 -0.41521,-0.45502 -0.0398,-0.075 -0.009,-0.16341 0.0618,-0.1986 0.0752,-0.0354 0.16362,-0.009 0.19881,0.0662 0.004,0 0.1678,0.31801 0.45062,0.41082 0.14581,0.0442 0.29581,0.0264 0.45943,-0.0574 0.0706,-0.0398 0.159,-0.009 0.19419,0.0618 0.0398,0.0706 0.0134,0.15901 -0.0618,0.19881 z m 3.75895,-17.73935 c -0.0264,-0.54321 -0.0486,-1.08664 -0.0926,-1.62546 -0.0266,-0.32241 0.0132,-0.29579 -0.32263,-0.2782 -0.98042,0.0618 -1.96107,0.12359 -2.94171,0.18561 -0.40202,0.0264 -0.53882,-0.0884 -0.62723,0.2516 -0.14141,0.54783 -0.1104,1.20145 -0.1634,1.76247 -0.22542,2.2527 -0.49483,4.50121 -0.82603,6.74048 -0.35343,2.39872 -0.75105,4.8148 -1.40906,7.15151 -0.23863,0.86122 -0.50803,1.74026 -0.93205,2.53089 -0.212,0.40642 -0.56102,1.02924 -1.07344,1.09984 -2.79591,0.38883 -1.55465,-18.31774 -1.40027,-20.58825 h -4.098953 c -0.0486,0.22521 -0.08841,0.45063 -0.132614,0.67583 -0.733229,3.99757 -1.205846,8.07014 -1.285241,12.13391 -0.07521,3.61754 -0.02221,7.88891 1.881678,11.10025 0.74202,1.25006 1.85946,2.2395 3.31272,2.53112 0.16803,0.0352 0.33583,0.0574 0.50363,0.075 0.1192,0.0132 0.24302,0.022 0.36662,0.0264 0.66703,0.0222 1.34286,-0.075 1.98327,-0.26941 0.11041,-0.0308 0.21641,-0.0706 0.32241,-0.106 h 0.004 c 0.48163,-0.1766 0.93204,-0.41082 1.35165,-0.69342 3.00813,-2.02749 4.15218,-6.08685 4.8014,-9.44819 0.83483,-4.34659 0.96744,-8.84316 0.77743,-13.25596" />
    <path
       inkscape:connector-curvature="0"
       id="path146"
       style="fill:#ffffff;fill-opacity:1;fill-rule:nonzero;stroke:none;stroke-width:0.02199247"
       d="m 101.32976,117.10336 c -4.9e-4,-0.74554 1.32505,-1.07675 1.15945,0 -0.16561,1.07654 -1.15945,0.28986 -1.15945,0" />
    <path
       inkscape:connector-curvature="0"
       id="path148"
       style="fill:#ffffff;fill-opacity:1;fill-rule:nonzero;stroke:none;stroke-width:0.02199247"
       d="m 111.54438,117.72245 c -4.9e-4,-0.74532 1.32505,-1.07652 1.15945,0 -0.1656,1.07675 -1.15945,0.28986 -1.15945,0" />
    <path
       inkscape:connector-curvature="0"
       id="path150"
       style="fill:#100f0d;fill-opacity:1;fill-rule:nonzero;stroke:none;stroke-width:0.02199247"
       d="m 112.46257,117.65296 c 0,0.13701 -0.14845,0.24786 -0.33143,0.24786 -0.18298,0 -0.3312,-0.11085 -0.3312,-0.24786 0,-0.13679 0.14822,-0.24786 0.3312,-0.24786 0.18298,0 0.33143,0.11107 0.33143,0.24786" />
    <path
       inkscape:connector-curvature="0"
       id="path152"
       style="fill:#100f0d;fill-opacity:1;fill-rule:nonzero;stroke:none;stroke-width:0.02199247"
       d="m 102.24795,117.03365 c 0,0.13701 -0.14845,0.24785 -0.33143,0.24785 -0.18297,0 -0.3312,-0.11084 -0.3312,-0.24785 0,-0.13679 0.14823,-0.24786 0.3312,-0.24786 0.18298,0 0.33143,0.11107 0.33143,0.24786" />
    <path
       inkscape:connector-curvature="0"
       id="path154"
       style="fill:#ffffff;fill-opacity:1;fill-rule:nonzero;stroke:none;stroke-width:0.02199247"
       d="m 109.90023,135.6329 c -0.14581,0.075 -0.2914,0.1148 -0.43722,0.1148 h -0.0132 c -0.60084,0.94524 -1.22806,1.66967 -1.89069,2.17329 0.1148,0.1324 0.2032,0.38861 0.23421,0.83484 0.11041,1.58565 -0.84803,0.1722 -1.14405,-0.29162 -0.42841,0.19441 -0.87024,0.30042 -1.32086,0.31801 h -0.128 c -2.30129,0 -3.97536,-2.25709 -4.05057,-2.3543 l 0.35782,-0.2606 c 0.0178,0.022 1.66527,2.24829 3.80316,2.17329 1.32526,-0.053 2.57069,-0.96745 3.70154,-2.73432 -0.2694,-0.16341 -0.40641,-0.44161 -0.41521,-0.45502 -0.0398,-0.075 -0.009,-0.16341 0.0618,-0.1986 0.0752,-0.0354 0.16362,-0.009 0.19881,0.0662 0.004,0 0.1678,0.31801 0.45062,0.41082 0.14581,0.0442 0.29581,0.0264 0.45943,-0.0574 0.0706,-0.0398 0.159,-0.009 0.19419,0.0618 0.0398,0.0706 0.0134,0.15901 -0.0618,0.19881" />
    <path
       inkscape:connector-curvature="0"
       id="path156"
       style="fill:#fff200;fill-opacity:1;fill-rule:nonzero;stroke:none;stroke-width:0.02199247"
       d="m 168.57745,141.71074 h 0.004 l 0.0662,0.0708 z m 0.39762,-1.00264 c -0.20321,-0.26941 -0.40642,-0.54761 -0.60963,-0.82164 0.004,0 0.004,0 0.004,0 -0.3356,-0.4504 -0.66703,-0.90103 -0.99824,-1.35166 -0.0486,-0.0662 -0.0972,-0.13239 -0.1502,-0.19858 v -0.004 c -0.25622,-0.34902 -0.51683,-0.69804 -0.77304,-1.04244 -0.33121,-0.45063 -0.66263,-0.90125 -0.99824,-1.35166 -0.2252,-0.30922 -0.45503,-0.61403 -0.68023,-0.92324 -0.14581,-0.19882 -0.29602,-0.39763 -0.44182,-0.59644 -0.2252,-0.3046 -0.45041,-0.60941 -0.67584,-0.91423 -0.28259,-0.37981 -0.5608,-0.75984 -0.83923,-1.13525 -0.54321,-0.73763 -1.08664,-1.47085 -1.63426,-2.20848 -0.2252,-0.30482 -0.45062,-0.60963 -0.67582,-0.91445 -0.10161,-0.14141 -0.37102,-0.38421 -0.40643,-0.55223 -0.0574,-0.2384 0.18562,-0.37101 0.38883,-0.58302 0.58742,-0.61821 1.17924,-1.23686 1.77128,-1.85507 1.87287,-1.96568 3.75015,-3.93137 5.62303,-5.89705 0.2782,-0.2914 0.55641,-0.58303 0.83483,-0.87443 0.128,-0.13261 0.4062,-0.3312 0.47702,-0.49922 0.0882,-0.20322 0.0838,-0.009 -0.0132,-0.23401 -0.14141,-0.33142 -0.56542,-0.68022 -0.79524,-0.95864 -0.80383,-0.96284 -1.60787,-1.93029 -2.41169,-2.89751 -0.60524,0.63602 -1.21465,1.27644 -1.81988,1.91246 -2.3279,2.44271 -4.65559,4.88541 -6.98349,7.32811 0.0266,-1.37365 0.0486,-2.7473 0.0706,-4.12557 0.0134,-0.83923 0.0266,-1.67846 0.0442,-2.51769 0.0134,-0.79085 0.0266,-1.57709 0.0398,-2.36332 0,-0.17659 0.15021,-1.15284 0.022,-1.28083 -0.0618,-0.0574 -0.43281,-0.0178 -0.51661,-0.0178 -0.35781,-0.0132 -0.71123,-0.022 -1.06905,-0.0352 -0.56983,-0.0178 -1.13965,-0.0398 -1.70947,-0.0574 -1.09545,-0.0354 -2.19529,-0.0708 -3.29074,-0.106 -0.12799,2.18649 -0.25621,4.37738 -0.37981,6.56365 -0.2252,3.82977 -0.44622,7.65514 -0.66703,11.48469 -0.27381,4.69539 -0.54761,9.39078 -0.82164,14.09057 h 4.44358 c 0.22542,0 0.91005,0.11942 1.09105,0 0.1016,-0.0662 0.0178,-0.0264 0.0752,-0.1722 0.0838,-0.2164 0.0442,-0.56103 0.0618,-0.79503 0.031,-0.38882 0.0618,-0.78183 0.0928,-1.17505 0.1236,-1.57247 0.24742,-3.14493 0.37101,-4.72179 0.1854,-2.3985 0.37541,-4.80161 0.56103,-7.20011 0.71101,0.91005 1.41785,1.82427 2.12469,2.73872 2.72971,3.51594 5.45941,7.03209 8.18472,10.54802 0.50802,-0.57422 1.01165,-1.15284 1.51968,-1.72706 v -0.004 c 0.41961,-0.47701 0.84363,-0.95842 1.26764,-1.44446 0.0486,-0.053 0.0928,-0.106 0.14142,-0.15901 0.24719,-0.2826 0.37981,-0.3886 0.3886,-0.5078 -0.0264,0.022 -0.0486,0.044 -0.075,0.0662 0.0264,-0.0222 0.0486,-0.0442 0.075,-0.0706 0.004,-0.0972 -0.0662,-0.20761 -0.23839,-0.43743" />
    <path
       inkscape:connector-curvature="0"
       id="path158"
       style="fill:#ffffff;fill-opacity:1;fill-rule:nonzero;stroke:none;stroke-width:0.02199247"
       d="m 155.00897,127.94763 c 0.21575,0.38795 0.30372,0.93952 0.32901,1.48889 -0.36331,0.0462 -0.72663,0.0924 -1.09016,0.13856 0.16538,-1.11503 0.42533,-2.23114 0.76115,-1.62745" />
    <path
       inkscape:connector-curvature="0"
       id="path160"
       style="fill:#ffffff;fill-opacity:1;fill-rule:nonzero;stroke:none;stroke-width:0.02199247"
       d="m 156.99995,127.59773 c 0.25402,0.1722 0.50825,0.85903 0.70684,1.53749 -0.32021,0.0407 -0.64064,0.0814 -0.96107,0.12228 -0.0442,-0.93336 -0.0229,-1.84758 0.25423,-1.65977" />
    <path
       inkscape:connector-curvature="0"
       id="path162"
       style="fill:#ffffff;fill-opacity:1;fill-rule:nonzero;stroke:none;stroke-width:0.02199247"
       d="m 159.04503,127.65975 c 0.19464,0.0948 0.25138,0.61117 0.23796,1.27512 -0.31845,0.0405 -0.63668,0.0809 -0.95513,0.1214 0.16319,-0.79041 0.40488,-1.54849 0.71717,-1.39652" />
    <path
       inkscape:connector-curvature="0"
       id="path164"
       style="fill:#ffffff;fill-opacity:1;fill-rule:nonzero;stroke:none;stroke-width:0.02199247"
       d="m 152.13852,129.18361 c 0.0721,-1.06444 0.28744,-2.78139 0.92522,-2.53134 0.50957,0.19969 0.479,1.39125 0.35232,2.40752 -0.2881,0.0125 -0.57598,0.0251 -0.86408,0.0376 -0.24126,0.0105 -0.35211,0.0226 -0.41346,0.0862" />
    <path
       inkscape:connector-curvature="0"
       id="path166"
       style="fill:#ffffff;fill-opacity:1;fill-rule:nonzero;stroke:none;stroke-width:0.02199247"
       d="m 159.54646,123.67252 c -6.3e-4,-1.96877 3.49988,-2.84363 3.06245,0 -0.43743,2.84362 -3.06201,0.76578 -3.06245,0" />
    <path
       inkscape:connector-curvature="0"
       id="path168"
       style="fill:#100f0d;fill-opacity:1;fill-rule:nonzero;stroke:none;stroke-width:0.02199247"
       d="m 161.07714,123.96414 c -0.41016,-0.0178 -0.73389,-0.23378 -0.72312,-0.4823 0.0108,-0.24851 0.35188,-0.43545 0.76204,-0.41764 0.41016,0.0178 0.73389,0.23378 0.72311,0.4823 -0.0108,0.24851 -0.35187,0.43545 -0.76203,0.41764" />
    <path
       inkscape:connector-curvature="0"
       id="path170"
       style="fill:#ffffff;fill-opacity:1;fill-rule:nonzero;stroke:none;stroke-width:0.02199247"
       d="m 152.16909,123.19924 c -6.2e-4,-1.96877 3.5001,-2.84363 3.06245,0 -0.43743,2.84362 -3.06201,0.76556 -3.06245,0" />
    <path
       inkscape:connector-curvature="0"
       id="path172"
       style="fill:#100f0d;fill-opacity:1;fill-rule:nonzero;stroke:none;stroke-width:0.02199247"
       d="m 153.72329,123.52847 c -0.4073,0.004 -0.73916,-0.19508 -0.74136,-0.44381 -0.002,-0.24874 0.32615,-0.45305 0.73344,-0.45679 0.40731,-0.004 0.73917,0.19507 0.74137,0.44381 0.002,0.24874 -0.32614,0.45327 -0.73345,0.45679" />
    <path
       inkscape:connector-curvature="0"
       id="path174"
       style="fill:#5e6061;fill-opacity:1;fill-rule:nonzero;stroke:none;stroke-width:0.02199247"
       d="m 174.10327,140.61529 v 4.75302 c 0,0 -1.36485,0.47701 -1.43567,0 -0.075,-0.48164 1.06466,-0.26062 1.06466,-0.26062 v -4.30678 c 0.0398,0.0442 0.075,0.0884 0.1148,0.13239 0.084,-0.106 0.1722,-0.212 0.25621,-0.31801" />
    <path
       inkscape:connector-curvature="0"
       id="path176"
       style="fill:#5e6061;fill-opacity:1;fill-rule:nonzero;stroke:none;stroke-width:0.02199247"
       d="m 189.05089,143.53061 -1.97008,-2.43368 c 0.0706,-0.004 0.14141,-0.009 0.21201,-0.0134 0.0486,-0.004 0.0972,-0.004 0.14581,-0.009 l 1.67846,2.07168 c 0,0 0.56103,-0.73762 0.81724,-0.3268 0.25622,0.40619 -0.88344,0.71101 -0.88344,0.71101" />
    <path
       inkscape:connector-curvature="0"
       id="path178"
       style="fill:#a6d71c;fill-opacity:1;fill-rule:nonzero;stroke:none;stroke-width:0.02199247"
       d="m 176.80659,129.08222 c -0.009,-0.009 -0.0176,-0.0176 -0.0176,-0.022 -0.0178,-0.0222 -0.0266,-0.0486 -0.031,-0.0752 0.0176,0.0308 0.0354,0.0662 0.0486,0.0972" />
    <path
       inkscape:connector-curvature="0"
       id="path180"
       style="fill:#a6d71c;fill-opacity:1;fill-rule:nonzero;stroke:none;stroke-width:0.02199247"
       d="m 181.64779,129.19702 c -0.85705,0.69343 -1.69628,0.98944 -2.4957,0.88784 -0.86145,-0.1148 -1.48868,-0.68023 -1.78887,-1.01583 0.61821,-0.14582 1.62986,-0.33143 2.27468,-0.26062 -0.0574,0.0352 -0.1148,0.075 -0.1722,0.1148 -0.10161,0.0662 -0.12382,0.20762 -0.0574,0.30482 0.0706,0.10161 0.20761,0.128 0.30922,0.0574 1.00263,-0.68903 1.65647,-0.32681 1.93028,-0.0884" />
    <path
       inkscape:connector-curvature="0"
       id="path182"
       style="fill:#a6d71c;fill-opacity:1;fill-rule:nonzero;stroke:none;stroke-width:0.02199247"
       d="m 183.82086,124.43104 v 0.004 h -0.91862 c 0,0 -0.57422,3.04772 -0.93644,3.07432 -0.36221,0.0264 -0.24302,-3.07432 -0.24302,-3.07432 h -3.56893 c -0.0222,0.14141 -0.47262,3.04772 -0.79525,3.07432 -0.32241,0.0264 -0.66242,-2.92851 -0.68023,-3.07432 h -0.43721 c 0,0 -0.084,0.51243 -0.1016,1.24103 -0.0442,-0.69342 0.0972,-1.24543 0.0972,-1.24543 h 7.5841" />
    <path
       inkscape:connector-curvature="0"
       id="path184"
       style="fill:#a6d71c;fill-opacity:1;fill-rule:nonzero;stroke:none;stroke-width:0.02199247"
       d="m 179.66451,121.0475 c -0.93644,1.46206 -1.88168,-0.32241 -1.69188,-0.74643 0.47701,-1.09105 2.62392,-0.72003 1.69188,0.74643" />
    <path
       inkscape:connector-curvature="0"
       id="path186"
       style="fill:#a6d71c;fill-opacity:1;fill-rule:nonzero;stroke:none;stroke-width:0.02199247"
       d="m 182.88003,120.68528 c -0.26501,1.71827 -1.85067,0.46382 -1.85067,0 0,-1.18825 2.1159,-1.71827 1.85067,0" />
    <path
       inkscape:connector-curvature="0"
       id="path188"
       style="fill:#ffffff;fill-opacity:1;fill-rule:nonzero;stroke:none;stroke-width:0.02199247"
       d="m 179.66451,121.0475 c -0.93644,1.46206 -1.88168,-0.32241 -1.69188,-0.74643 0.47701,-1.09105 2.62392,-0.72003 1.69188,0.74643" />
    <path
       inkscape:connector-curvature="0"
       id="path190"
       style="fill:#ffffff;fill-opacity:1;fill-rule:nonzero;stroke:none;stroke-width:0.02199247"
       d="m 182.88003,120.68528 c -0.26501,1.71827 -1.85067,0.46382 -1.85067,0 0,-1.18825 2.1159,-1.71827 1.85067,0" />
    <path
       inkscape:connector-curvature="0"
       id="path192"
       style="fill:#100f0d;fill-opacity:1;fill-rule:nonzero;stroke:none;stroke-width:0.02199247"
       d="m 182.68561,120.54365 c 0,0.39696 -0.32153,0.71871 -0.71849,0.71871 -0.39674,0 -0.7185,-0.32175 -0.7185,-0.71871 0,-0.39674 0.32176,-0.7185 0.7185,-0.7185 0.39696,0 0.71849,0.32176 0.71849,0.7185" />
    <path
       inkscape:connector-curvature="0"
       id="path194"
       style="fill:#100f0d;fill-opacity:1;fill-rule:nonzero;stroke:none;stroke-width:0.02199247"
       d="m 179.59127,120.57554 c 0,0.39696 -0.32174,0.71849 -0.71849,0.71849 -0.39697,0 -0.71871,-0.32153 -0.71871,-0.71849 0,-0.39675 0.32174,-0.7185 0.71871,-0.7185 0.39675,0 0.71849,0.32175 0.71849,0.7185" />
    <path
       inkscape:connector-curvature="0"
       id="path196"
       style="fill:#ffffff;fill-opacity:1;fill-rule:nonzero;stroke:none;stroke-width:0.02199247"
       d="m 183.82086,124.43104 v 0.004 h -0.91862 c 0,0 -0.57422,3.04772 -0.93644,3.07432 -0.36221,0.0264 -0.24302,-3.07432 -0.24302,-3.07432 h -3.56893 c -0.0222,0.14141 -0.47262,3.04772 -0.79525,3.07432 -0.32241,0.0264 -0.66242,-2.92851 -0.68023,-3.07432 h -0.43721 c 0,0 -0.084,0.51243 -0.1016,1.24103 -0.0442,-0.69342 0.0972,-1.24543 0.0972,-1.24543 h 7.5841" />
    <path
       inkscape:connector-curvature="0"
       id="path198"
       style="fill:#ffffff;fill-opacity:1;fill-rule:nonzero;stroke:none;stroke-width:0.02199247"
       d="m 178.15385,124.43543 c -0.0222,0.14142 -0.47262,3.04772 -0.79525,3.07433 -0.32241,0.0264 -0.66242,-2.92852 -0.68023,-3.07433 h 1.47548" />
    <path
       inkscape:connector-curvature="0"
       id="path200"
       style="fill:#ffffff;fill-opacity:1;fill-rule:nonzero;stroke:none;stroke-width:0.02199247"
       d="m 181.64779,129.19702 c -0.85705,0.69343 -1.69628,0.98944 -2.4957,0.88784 -0.86145,-0.1148 -1.48868,-0.68023 -1.78887,-1.01583 0.61821,-0.14582 1.62986,-0.33143 2.27468,-0.26062 -0.0574,0.0352 -0.1148,0.075 -0.1722,0.1148 -0.10161,0.0662 -0.12382,0.20762 -0.0574,0.30482 0.0706,0.10161 0.20761,0.128 0.30922,0.0574 1.00263,-0.68903 1.65647,-0.32681 1.93028,-0.0884" />
    <path
       inkscape:connector-curvature="0"
       id="path202"
       style="fill:#ffffff;fill-opacity:1;fill-rule:nonzero;stroke:none;stroke-width:0.02199247"
       d="m 182.90224,124.43543 c 0,0 -0.57422,3.04772 -0.93644,3.07433 -0.36221,0.0264 -0.24302,-3.07433 -0.24302,-3.07433 h 1.17946" />
    <path
       inkscape:connector-curvature="0"
       id="path204"
       style="fill:#fabfc0;fill-opacity:1;fill-rule:nonzero;stroke:none;stroke-width:0.02199247"
       d="m 181.64779,129.19702 c -0.85705,0.69343 -1.69628,0.98944 -2.4957,0.88784 -0.86145,-0.1148 -1.48868,-0.68023 -1.78887,-1.01583 0.61821,-0.14582 1.62986,-0.33143 2.27468,-0.26062 -0.0574,0.0352 -0.1148,0.075 -0.1722,0.1148 -0.10161,0.0662 -0.12382,0.20762 -0.0574,0.30482 0.0706,0.10161 0.20761,0.128 0.30922,0.0574 1.00263,-0.68903 1.65647,-0.32681 1.93028,-0.0884" />
    <path
       inkscape:connector-curvature="0"
       id="path206"
       style="fill:#ffffff;fill-opacity:1;fill-rule:nonzero;stroke:none;stroke-width:0.02199247"
       d="m 176.75799,128.98501 c 0.004,0.0266 0.0132,0.053 0.031,0.0752 0,0.004 0.009,0.0132 0.0176,0.022 -0.0132,-0.031 -0.031,-0.0664 -0.0486,-0.0972" />
    <path
       inkscape:connector-curvature="0"
       id="path208"
       style="fill:#a6d71c;fill-opacity:1;fill-rule:nonzero;stroke:none;stroke-width:0.02199247"
       d="m 183.82086,124.43543 c 0,0.004 0,0.053 -0.004,0.1368 0,0.0222 0,0.0442 -0.004,0.0708 -0.0264,0.68903 -0.20761,2.92852 -1.33384,4.45677 -0.14581,0.19002 -0.30922,0.38443 -0.49044,0.54784 -0.18979,0.181 -0.3974,0.34 -0.63162,0.46822 -0.20321,0.1236 -0.42401,0.2252 -0.66703,0.30041 -0.32241,0.10161 -0.68022,0.16341 -1.07323,0.16341 -0.031,0.009 -0.0574,0.009 -0.0884,0.009 -0.24302,0 -0.46822,-0.022 -0.68023,-0.0618 -0.24741,-0.0442 -0.47261,-0.1104 -0.67583,-0.19882 -0.36222,-0.1502 -0.66263,-0.36661 -0.90982,-0.63161 -0.15901,-0.16781 -0.29602,-0.35343 -0.41523,-0.55224 -0.0178,-0.0264 -0.031,-0.0486 -0.0398,-0.0618 -0.009,-0.009 -0.0176,-0.0176 -0.0176,-0.022 -0.0178,-0.0222 -0.0266,-0.0486 -0.031,-0.0752 -0.55224,-1.03364 -0.64504,-2.35429 -0.61843,-3.30855 -0.0442,-0.69342 0.0972,-1.24543 0.0972,-1.24543 h 7.58411 z m -5.84823,-4.13436 c 0.47701,-1.09105 2.62392,-0.72003 1.69188,0.74643 -0.93644,1.46206 -1.88168,-0.32241 -1.69188,-0.74643 z m 4.9074,0.38421 c -0.26501,1.71827 -1.85067,0.46382 -1.85067,0 0,-1.18825 2.1159,-1.71827 1.85067,0 z m 6.9969,19.89922 c -1.05586,-3.85615 -2.11589,-7.71671 -3.17153,-11.57287 -0.91885,-3.35276 -1.83769,-6.70529 -2.75632,-10.05781 -0.19881,-0.73346 -0.37101,-1.48428 -0.60523,-2.20431 -0.0264,-0.0882 -0.0352,-0.2208 -0.0972,-0.26501 -0.21201,-0.15461 -1.13063,0 -1.38684,0 h -4.10798 c -0.23422,0 -0.2826,-0.0308 -0.40642,0.0972 -0.14581,0.14582 -0.2208,0.54783 -0.29601,0.73763 -0.1766,0.44623 -0.35321,0.88784 -0.53002,1.33406 -0.45041,1.13966 -0.90104,2.27469 -1.35166,3.40994 -0.56081,1.41368 -1.12184,2.82691 -1.68287,4.23619 -1.28985,3.25532 -2.57949,6.51086 -3.86935,9.76179 1.36925,1.58126 2.74752,3.15834 4.11677,4.7396 0.0398,0.0442 0.075,0.0884 0.1148,0.13239 0.084,-0.106 0.1722,-0.212 0.25621,-0.31801 1.93468,-2.4029 3.86056,-4.80139 5.79524,-7.20429 0.61842,1.01605 1.24125,2.03188 1.85968,3.04793 0.37102,0.60502 0.73763,1.21025 1.10864,1.81526 0.34902,0.57423 0.69782,1.14405 1.04685,1.71828 0.17681,0.29162 0.44182,1.00285 0.72882,1.19265 0.21641,0.14141 0.78623,0.004 1.05564,-0.0132 0.45943,-0.0264 0.92325,-0.0486 1.38267,-0.075 0.0706,-0.004 0.14141,-0.009 0.21201,-0.0134 0.0486,-0.004 0.0972,-0.004 0.14581,-0.009 0.84362,-0.0486 1.68726,-0.0972 2.53089,-0.14141 -0.0308,-0.1192 -0.0618,-0.234 -0.0926,-0.3488" />
    <path
       inkscape:connector-curvature="0"
       id="path210"
       style="fill:#ffffff;fill-opacity:1;fill-rule:nonzero;stroke:none;stroke-width:0.02199247"
       d="m 179.15209,130.08486 c -0.86145,-0.1148 -1.48868,-0.68023 -1.78887,-1.01583 0.61821,-0.14582 1.62986,-0.33143 2.27468,-0.26062 -0.0574,0.0352 -0.1148,0.075 -0.1722,0.1148 -0.10161,0.0662 -0.12382,0.20762 -0.0574,0.30482 0.0706,0.10161 0.20761,0.128 0.30922,0.0574 1.00263,-0.68903 1.65647,-0.32681 1.93028,-0.0884 -0.85705,0.69342 -1.69628,0.98944 -2.4957,0.88783 z m 3.75015,-5.64943 c 0,0 -0.57422,3.04772 -0.93644,3.07433 -0.36221,0.0264 -0.24302,-3.07433 -0.24302,-3.07433 h -3.56893 c -0.0222,0.14142 -0.47262,3.04772 -0.79525,3.07433 -0.32241,0.0264 -0.66242,-2.92852 -0.68023,-3.07433 h -0.43721 c 0,0 -0.084,0.51243 -0.1016,1.24104 -0.0266,0.95425 0.0662,2.2749 0.61843,3.30854 0.0176,0.0308 0.0354,0.0662 0.0486,0.0972 0.009,0.0132 0.022,0.0354 0.0398,0.0618 0.1192,0.19881 0.25621,0.38443 0.41522,0.55223 0.24719,0.26501 0.54761,0.48142 0.90983,0.63162 0.2032,0.0884 0.42841,0.15462 0.67583,0.19882 0.212,0.0398 0.43721,0.0618 0.68022,0.0618 0.031,0 0.0574,0 0.0884,-0.009 0.39301,0 0.75083,-0.0618 1.07323,-0.16341 0.24302,-0.0752 0.46383,-0.17681 0.66703,-0.30041 0.23422,-0.12822 0.44183,-0.28722 0.63163,-0.46822 0.18122,-0.16341 0.34462,-0.35782 0.49043,-0.54784 1.12624,-1.52825 1.30745,-3.76775 1.33384,-4.45677 0.004,-0.0266 0.004,-0.0486 0.004,-0.0708 0.004,-0.0838 0.004,-0.1324 0.004,-0.1368 h -0.91862" />
    <path
       inkscape:connector-curvature="0"
       id="path212"
       style="fill:#cceef7;fill-opacity:1;fill-rule:nonzero;stroke:none;stroke-width:0.02199247"
       d="m 178.15385,124.43104 c 0,0 0,0 0,0.004 -0.0222,0.14141 -0.47262,3.04772 -0.79525,3.07432 -0.32241,0.0264 -0.66242,-2.92851 -0.68023,-3.07432 0,-0.004 0,-0.004 0,-0.004 h 1.47548" />
    <path
       inkscape:connector-curvature="0"
       id="path214"
       style="fill:#cceef7;fill-opacity:1;fill-rule:nonzero;stroke:none;stroke-width:0.02199247"
       d="m 182.90224,124.43543 c 0,0 -0.57422,3.04772 -0.93644,3.07433 -0.36221,0.0264 -0.24302,-3.07433 -0.24302,-3.07433 h 1.17946" />
  </g>
</svg>
