<?xml version="1.0" encoding="UTF-8" standalone="no"?>
<svg
   xmlns:dc="http://purl.org/dc/elements/1.1/"
   xmlns:cc="http://creativecommons.org/ns#"
   xmlns:rdf="http://www.w3.org/1999/02/22-rdf-syntax-ns#"
   xmlns:svg="http://www.w3.org/2000/svg"
   xmlns="http://www.w3.org/2000/svg"
   width="15.875mm"
   height="23.8125mm"
   viewBox="0 0 17.462499 26.193748"
   version="1.1"
   id="svg1442">
  <defs
     id="defs1436" />
  <metadata
     id="metadata1439">
    <rdf:RDF>
      <cc:Work
         rdf:about="">
        <dc:format>image/svg+xml</dc:format>
        <dc:type
           rdf:resource="http://purl.org/dc/dcmitype/StillImage" />
        <dc:title></dc:title>
      </cc:Work>
    </rdf:RDF>
  </metadata>
  <g
     transform="scale(0.75000001)"
     id="g941">
    <path
       style="fill:#ffffff;stroke-width:0.70201886"
       d="m 11.500554,20.396198 c -4.0922215,0 -7.4083325,-3.4925 -7.4083325,-7.893049 0,-4.3307008 3.316111,-7.8930503 7.4083325,-7.8930503 4.092222,0 7.337777,3.4924995 7.337777,7.8930503 0.07056,4.400549 -3.245555,7.893049 -7.337777,7.893049 z"
       id="path916" />
    <g
       transform="translate(-90.20665,-86.866457)"
       id="layer1">
      <g
         transform="matrix(0.40393296,0,0,0.39989363,60.822889,61.698655)"
         id="g900">
        <g
           id="g2048"
           transform="matrix(0.28553648,0,0,0.23816426,68.529832,66.694681)">
          <path
             d="m 85.852079,85.170397 c -0.214938,1.395985 -0.715999,2.595854 -1.718487,3.186876 -1.271346,0.733649 -1.98762,-0.608849 -2.363699,-2.560198 1.360836,-0.214837 2.721661,-0.429671 4.082186,-0.626678"
             style="fill:#cceef7;fill-opacity:1;fill-rule:nonzero;stroke:none;stroke-width:0.08914334"
             id="path56" />
          <path
             d="m 94.857963,83.77352 c -0.143174,2.363191 -0.680074,4.475889 -2.059033,4.78076 -1.468102,0.339635 -2.076773,-1.701747 -2.291608,-4.100595 1.450361,-0.232651 2.900277,-0.4475 4.350641,-0.680165"
             style="fill:#cceef7;fill-opacity:1;fill-rule:nonzero;stroke:none;stroke-width:0.08914334"
             id="path58" />
          <path
             d="m 104.50844,82.287502 c -0.14317,1.826548 -0.51926,3.687861 -1.3786,4.941215 -1.16377,1.701747 -1.9337,-1.127663 -2.3992,-4.350193 1.25317,-0.196997 2.50644,-0.394015 3.7778,-0.591022"
             style="fill:#cceef7;fill-opacity:1;fill-rule:nonzero;stroke:none;stroke-width:0.08914334"
             id="path60" />
          <path
             d="m 113.8545,80.854969 c -0.76984,2.52454 -2.30971,6.964769 -3.68831,7.734968 -1.2177,0.680162 -0.9311,-3.688753 -0.51917,-7.090463 1.39634,-0.214837 2.79304,-0.429671 4.20748,-0.644505"
             style="fill:#cceef7;fill-opacity:1;fill-rule:nonzero;stroke:none;stroke-width:0.08914334"
             id="path62" />
          <path
             d="m 117.43521,88.661251 c -1.66511,0.662335 -2.56038,-4.995594 -2.91838,-7.895426 1.23544,-0.196997 2.4887,-0.394012 3.72414,-0.573192 0.30443,3.885758 0.358,8.021119 -0.80576,8.468618"
             style="fill:#cceef7;fill-opacity:1;fill-rule:nonzero;stroke:none;stroke-width:0.08914334"
             id="path64" />
          <path
             d="m 121.06994,181.33378 c -0.14353,2.09485 -4.61941,2.23749 -5.22817,-0.73455 -0.59093,-2.98987 4.18938,0 4.18938,0 l -2.27378,-22.64865 c 0.26877,-0.0179 0.55501,-0.0356 0.82386,-0.0713 0.57284,4.63724 2.61404,21.66362 2.48871,23.45451"
             style="fill:#5e6061;fill-opacity:1;fill-rule:nonzero;stroke:none;stroke-width:0.08914334"
             id="path66" />
          <path
             d="m 131.09607,180.67143 c -0.14308,2.09487 -4.61941,2.23749 -5.20999,-0.75236 -0.60867,-2.97204 4.17164,0 4.17164,0 l -2.27386,-22.86348 c 0.2685,-0.0179 0.51917,-0.0535 0.78767,-0.0713 0.53735,4.27888 2.66806,21.84279 2.52454,23.68715"
             style="fill:#5e6061;fill-opacity:1;fill-rule:nonzero;stroke:none;stroke-width:0.08914334"
             id="path68" />
          <path
             d="m 128.41062,65.600761 c -0.68034,4.368916 -4.7089,1.18204 -4.7089,0 0,-3.007695 5.37124,-4.351085 4.7089,0 z m 12.62217,8.916116 c -0.66224,4.368916 -4.69082,1.18204 -4.69082,0 0,-3.025525 5.37124,-4.368915 4.69082,0 z m -24.29575,62.915583 c 5.1564,-9.50714 10.29471,-18.99644 15.43329,-28.48575 3.3304,-6.14109 6.64261,-12.28217 9.97256,-18.423254 1.4681,-2.703718 3.0438,-5.388716 4.40466,-8.128982 0.85934,-1.736512 0.48324,-3.597825 0.4655,-5.532236 -0.0718,-6.535096 -0.14353,-13.069303 -0.1971,-19.605293 -18.76359,1.057239 -37.5272,2.131418 -56.290889,3.205595 -4.833885,0.268321 -9.668191,0.536642 -14.484365,0.823685 1.074247,8.289438 2.148497,16.578875 3.240501,24.887035 0.823883,-0.125688 1.665173,-0.251376 2.488696,-0.376185 1.360836,-0.214837 2.721661,-0.429671 4.082186,-0.626678 1.540129,-0.250491 3.097732,-0.484047 4.655243,-0.716712 1.450361,-0.232676 2.900277,-0.4475 4.350641,-0.680165 1.951705,-0.286148 3.90314,-0.591018 5.872677,-0.894996 1.25317,-0.196997 2.50644,-0.394015 3.7778,-0.591022 1.70068,-0.250491 3.41981,-0.518815 5.13858,-0.788028 1.39634,-0.214837 2.79304,-0.429671 4.20748,-0.644505 0.32216,-1.03852 0.50116,-1.736512 0.50116,-1.736512 0,0 0.0536,0.662335 0.16117,1.647368 1.23543,-0.196997 2.4887,-0.394012 3.72414,-0.573192 0.41166,-0.07131 0.82359,-0.125688 1.23552,-0.196997 3.47348,-0.536642 6.96468,-1.074176 10.43815,-1.611711 -6.87517,10.474343 -13.76854,20.948688 -20.64372,31.422135 -3.13321,4.78076 -6.26642,9.54279 -9.399721,14.30572 -2.416942,3.68875 -4.834241,7.35879 -7.269013,11.04665 -1.145938,1.75523 -3.294471,3.9749 -3.938976,5.99845 -0.286598,0.91283 0.05357,2.27316 0.125334,3.24036 0.143073,2.09487 0.286593,4.18974 0.44741,6.2846 0.214938,3.2582 0.447855,6.5351 0.68043,9.79329 9.274382,-0.84151 18.566946,-1.68303 27.840976,-2.52454 0.26877,-0.0179 0.55501,-0.0356 0.82386,-0.0713 0.14308,0 0.30434,-0.0179 0.44741,-0.0356 2.91847,-0.26921 5.83685,-0.5197 8.75522,-0.78802 0.2685,-0.0179 0.51917,-0.0535 0.78767,-0.0713 3.02597,-0.28704 6.06941,-0.55537 9.0954,-0.82369 2.73946,-0.25137 5.72959,-0.19699 8.41502,-0.77019 0.35791,-0.0713 0.78769,0.0356 0.98478,-0.197 0.55499,-0.55447 0.48332,-3.24036 0.59092,-4.01055 0.82351,-5.72925 1.64701,-11.45849 2.47052,-17.16991 -11.13624,1.12767 -22.25481,2.27405 -33.39113,3.41954"
             style="fill:#18abe3;fill-opacity:1;fill-rule:nonzero;stroke:none;stroke-width:0.08914334"
             id="path70" />
          <path
             d="m 114.51683,80.765825 c -0.23257,0.01794 -0.44741,0.05349 -0.66233,0.08915 0.32216,-1.03852 0.50116,-1.736512 0.50116,-1.736512 0,0 0.0536,0.662335 0.16117,1.647368"
             style="fill:#18abe3;fill-opacity:1;fill-rule:nonzero;stroke:none;stroke-width:0.08914334"
             id="path72" />
          <path
             d="m 128.41062,65.600761 c -0.68034,4.368916 -4.7089,1.18204 -4.7089,0 0,-3.007695 5.37124,-4.351085 4.7089,0"
             style="fill:#18abe3;fill-opacity:1;fill-rule:nonzero;stroke:none;stroke-width:0.08914334"
             id="path74" />
          <path
             d="m 141.03279,74.516877 c -0.66224,4.368916 -4.69082,1.18204 -4.69082,0 0,-3.025525 5.37124,-4.368915 4.69082,0"
             style="fill:#18abe3;fill-opacity:1;fill-rule:nonzero;stroke:none;stroke-width:0.08914334"
             id="path76" />
          <path
             d="m 128.41062,65.600761 c -0.68034,4.368916 -4.7089,1.18204 -4.7089,0 0,-3.007695 5.37124,-4.351085 4.7089,0"
             style="fill:#ffffff;fill-opacity:1;fill-rule:nonzero;stroke:none;stroke-width:0.08914334"
             id="path78" />
          <path
             d="m 141.03279,74.516877 c -0.66224,4.368916 -4.69082,1.18204 -4.69082,0 0,-3.025525 5.37124,-4.368915 4.69082,0"
             style="fill:#ffffff;fill-opacity:1;fill-rule:nonzero;stroke:none;stroke-width:0.08914334"
             id="path80" />
          <path
             d="m 126.88199,65.323525 c 0,0.437694 -0.35514,0.793376 -0.7932,0.793376 -0.43805,0 -0.79292,-0.355682 -0.79292,-0.793376 0,-0.438586 0.35487,-0.793375 0.79292,-0.793375 0.43806,0 0.7932,0.354789 0.7932,0.793375"
             style="fill:#100f0d;fill-opacity:1;fill-rule:nonzero;stroke:none;stroke-width:0.08914334"
             id="path82" />
          <path
             d="m 139.51254,74.233402 c 0,0.438584 -0.35523,0.793375 -0.79294,0.793375 -0.43804,0 -0.7932,-0.354791 -0.7932,-0.793375 0,-0.437694 0.35516,-0.793375 0.7932,-0.793375 0.43771,0 0.79294,0.355681 0.79294,0.793375"
             style="fill:#100f0d;fill-opacity:1;fill-rule:nonzero;stroke:none;stroke-width:0.08914334"
             id="path84" />
        </g>
        <g
           id="g870"
           transform="matrix(1.7467143,0,0,1.7467143,72.744152,62.936241)"
           style="fill:#ff0000">
          <path
             id="path868"
             d="M 33,17.8 C 33,8 25.6,0 16.5,0 7.4,0 0,8 0,17.8 c 0,1.9 0.3,3.8 0.8,5.5 0,0 1.4,6.7 15.6,26.7 C 24.5,38.5 28.5,31.4 30.3,27.5 32,24.7 33,21.3 33,17.8 Z M 16.3,29.2 c -5.8,0 -10.5,-5 -10.5,-11.3 0,-6.2 4.7,-11.3 10.5,-11.3 5.8,0 10.4,5 10.4,11.3 0.1,6.3 -4.6,11.3 -10.4,11.3 z m 0,0"
             class="st0"
             style="fill:#ff0000" />
        </g>
      </g>
    </g>
  </g>
  <style
     id="style866"
     type="text/css">
	.st0{fill:#F08304;}
</style>
  <path
     id="path867"
     d="M 36.196256,10.513879"
     style="fill:#ff0000;stroke-width:0.70201886" />
</svg>
