<?xml version="1.0" encoding="UTF-8" standalone="no"?>
<!-- Created with Inkscape (http://www.inkscape.org/) -->

<svg
   xmlns:dc="http://purl.org/dc/elements/1.1/"
   xmlns:cc="http://creativecommons.org/ns#"
   xmlns:rdf="http://www.w3.org/1999/02/22-rdf-syntax-ns#"
   xmlns:svg="http://www.w3.org/2000/svg"
   xmlns="http://www.w3.org/2000/svg"
   xmlns:sodipodi="http://sodipodi.sourceforge.net/DTD/sodipodi-0.dtd"
   xmlns:inkscape="http://www.inkscape.org/namespaces/inkscape"
   width="74.103752mm"
   height="86.217674mm"
   viewBox="0 0 66.693377 77.595904"
   version="1.1"
   id="svg1868"
   inkscape:version="0.92.3 (2405546, 2018-03-11)"
   sodipodi:docname="tooht_2.svg">
  <defs
     id="defs1862">
    <filter
       style="color-interpolation-filters:sRGB"
       id="filter3252">
      <feBlend
         in2="BackgroundImage"
         mode="screen"
         id="feBlend2" />
    </filter>
  </defs>
  <sodipodi:namedview
     id="base"
     pagecolor="#ffffff"
     bordercolor="#666666"
     borderopacity="1.0"
     inkscape:pageopacity="0.0"
     inkscape:pageshadow="2"
     inkscape:zoom="0.49497475"
     inkscape:cx="-273.46854"
     inkscape:cy="16.132325"
     inkscape:document-units="mm"
     inkscape:current-layer="layer1"
     showgrid="false"
     scale-x="0.9"
     fit-margin-top="0"
     fit-margin-left="0"
     fit-margin-right="0"
     fit-margin-bottom="0"
     inkscape:window-width="1366"
     inkscape:window-height="704"
     inkscape:window-x="0"
     inkscape:window-y="27"
     inkscape:window-maximized="1" />
  <metadata
     id="metadata1865">
    <rdf:RDF>
      <cc:Work
         rdf:about="">
        <dc:format>image/svg+xml</dc:format>
        <dc:type
           rdf:resource="http://purl.org/dc/dcmitype/StillImage" />
        <dc:title></dc:title>
      </cc:Work>
    </rdf:RDF>
  </metadata>
  <g
     inkscape:label="Layer 1"
     inkscape:groupmode="layer"
     id="layer1"
     transform="translate(-117.08783,-55.60681)">
    <path
       transform="matrix(0.26457998,0,0,0.26457998,121.39269,60.808092)"
       style="opacity:0.92000002;fill:none;stroke:#000000;stroke-width:9.53299999;filter:url(#filter3252)"
       inkscape:connector-curvature="0"
       id="path637"
       d="M 62.4,247.6 C 46.161,237.272 40.275,217.606 33.942,200.534 28.2167,180.805 24.0244,160.573 15.713,141.691 4.644,110.485 -1.621,73.972 14.5703,43.34 24.8473,23.112 46.5353,11.426 68.4813,8.784 c 36.428,-6.5647 75.148,-5.7331 109.99,7.6048 23.549,12.56 36.224,39.873 36.295,65.898 0.6531,28.847 -9.5559,56.391 -19.655,82.908 -7.9039,27.083 -11.926,57.779 -32.752,78.676 -11.041,12.67 -28.992,-1.3644 -29.243,-15.19 -7.0061,-25.614 0.5703,-54.317 -12.6,-78.305 -9.4923,-13.499 -24.356,-1.668 -26.133,10.885 -5.572,18.494 -3.2872,38.149 -6.1908,57.089 -1.1657,11.825 -4.3356,27.707 -17.876,30.629 -2.6873,0.4998 -5.5762,0.085 -7.9121,-1.3796 z" />
  </g>
</svg>
